<svg width="421" height="64" viewBox="0 0 421 64" fill="none" xmlns="http://www.w3.org/2000/svg">
<ellipse cx="376" cy="25.74" rx="11" ry="11.1418" fill="white"/>
<path d="M376.123 17.2472C376.123 15.7189 375.709 13.3486 376.402 11.9579C376.706 11.3481 376.687 10.9385 377.178 10.31C377.772 9.54849 378.347 8.47358 379.101 7.91309" stroke="white" stroke-linecap="round"/>
<path d="M25.8984 40.8047L26.2207 37.7725C26.2207 36.542 25.7178 35.6045 24.7119 34.96C23.7158 34.3057 22.666 34.0176 21.5625 34.0957C20.459 34.1641 19.6875 34.5352 19.248 35.209C19.0234 35.5312 18.9111 35.9121 18.9111 36.3516L18.8379 40.2773C18.8379 40.8145 18.9209 41.6104 19.0869 42.665C19.2529 43.7295 19.3359 44.5303 19.3359 45.0674C19.3359 46.0146 19.0674 46.4883 18.5303 46.4883C17.9932 46.4883 17.7246 46.0293 17.7246 45.1113C17.7246 44.5059 17.8125 43.6367 17.9883 42.5039C18.1641 41.3711 18.2617 40.5117 18.2812 39.9258C18.3105 39.3398 18.3252 38.0898 18.3252 36.1758C18.3252 35.668 18.1689 35.082 17.8564 34.418C17.5439 33.7539 17.0508 32.8408 16.377 31.6787C15.7031 30.5166 15.1514 29.4912 14.7217 28.6025L14.2822 28.3535C14.0479 28.7832 13.6328 28.998 13.0371 28.998L11.8066 29.042C10.9668 29.042 10.3369 28.8369 9.91699 28.4268L9.60938 28.7197C9.63867 29.0811 9.65332 29.8525 9.65332 31.0342L9.63867 34.623C9.63867 35.6973 9.6582 36.4883 9.69727 36.9961L9.97559 39.1494C9.97559 39.5498 9.83887 39.75 9.56543 39.75C9.29199 39.75 9.15527 39.5645 9.15527 39.1934L9.38965 37.377C9.38965 36.9375 9.25781 36.5859 8.99414 36.3223C8.74023 36.0684 8.40332 35.9414 7.9834 35.9414C7.57324 35.9414 7.20703 36.1221 6.88477 36.4834C6.57227 36.8545 6.41602 37.333 6.41602 37.9189C6.41602 38.5049 6.52344 39.2959 6.73828 40.292C6.95312 41.2979 7.06055 42.0205 7.06055 42.46C7.06055 43.3779 6.7334 43.8369 6.0791 43.8369C5.4248 43.8369 5.09766 43.3877 5.09766 42.4893C5.09766 42.0693 5.19043 41.3369 5.37598 40.292C5.57129 39.2471 5.66895 38.417 5.66895 37.8018C5.66895 37.1865 5.52734 36.6787 5.24414 36.2783C4.96094 35.8877 4.63867 35.6924 4.27734 35.6924C3.91602 35.6924 3.6084 35.8145 3.35449 36.0586C3.10059 36.3125 2.97363 36.625 2.97363 36.9961L3.36914 40.4678C3.36914 41.0635 3.14941 41.3613 2.70996 41.3613C2.27051 41.3613 2.05078 41.0586 2.05078 40.4531C2.05078 40.1016 2.14355 39.4863 2.3291 38.6074C2.51465 37.7383 2.60254 37.0596 2.59277 36.5713C2.58301 36.083 2.57812 29.7646 2.57812 17.6162C2.57812 17.0107 2.39258 16.5273 2.02148 16.166L2.31445 15.873C2.69531 16.2441 3.17871 16.4297 3.76465 16.4297H16.8896C18.9404 16.4297 20.3174 16.4932 21.0205 16.6201C21.7334 16.7373 22.3535 16.8643 22.8809 17.001C23.418 17.1377 23.8672 17.3086 24.2285 17.5137C24.5996 17.709 24.9707 17.958 25.3418 18.2607C25.7227 18.5537 26.0254 18.8906 26.25 19.2715C26.7676 20.1406 27.0264 21.0635 27.0264 22.04C27.0264 23.0166 26.9482 23.8174 26.792 24.4424C26.6455 25.0576 26.3965 25.6387 26.0449 26.1855C25.2832 27.3672 23.9453 27.958 22.0312 27.958L21.9141 28.2949C22.5293 28.5391 22.9395 28.876 23.1445 29.3057C24.0039 31.1807 24.6387 32.3721 25.0488 32.8799C25.459 33.3779 25.8398 33.7783 26.1914 34.0811C26.543 34.3838 27.0459 34.6914 27.7002 35.0039C28.3545 35.3164 28.75 35.5215 28.8867 35.6191C29.0234 35.707 29.0918 35.7803 29.0918 35.8389C29.0918 36.8154 29.2236 38.0703 29.4873 39.6035C29.751 41.1367 29.8828 42.123 29.8828 42.5625C29.8828 43.002 29.8633 43.3193 29.8242 43.5146C29.7949 43.71 29.7217 43.9004 29.6045 44.0859C29.4873 44.2812 29.3164 44.3789 29.0918 44.3789C28.8672 44.3789 28.6963 44.2178 28.5791 43.8955C28.4717 43.5732 28.418 43.1777 28.418 42.709C28.418 42.2402 28.4814 41.4004 28.6084 40.1895C28.7354 38.9883 28.7988 38.0801 28.7988 37.4648C28.7988 36.2441 28.4033 35.6338 27.6123 35.6338C27.2217 35.6338 26.9287 35.7021 26.7334 35.8389C26.5479 35.9756 26.4551 36.2539 26.4551 36.6738C26.4551 37.1035 26.543 37.7822 26.7188 38.71C26.8945 39.6377 26.9824 40.3359 26.9824 40.8047C26.9824 41.2832 26.8018 41.5225 26.4404 41.5225C26.0791 41.5225 25.8984 41.2832 25.8984 40.8047ZM16.1426 21.293L12.6855 21.3955C11.2695 21.3955 10.3467 21.1855 9.91699 20.7656L9.60938 21.0439C10 21.4248 10.1953 21.9131 10.1953 22.5088V23.4902C10.1953 24.0762 10 24.5645 9.60938 24.9551L9.91699 25.248C10.3369 24.8184 11.2061 24.6035 12.5244 24.6035L16.2305 24.7354C17.2168 24.7354 17.9785 24.6084 18.5156 24.3545C19.0625 24.0908 19.3359 23.6123 19.3359 22.9189C19.3359 22.4795 19.1846 22.1377 18.8818 21.8936C18.5791 21.6396 18.2129 21.4785 17.7832 21.4102C17.3535 21.332 16.8066 21.293 16.1426 21.293ZM31.4502 36.9375L31.4941 39.2666C31.4941 39.7354 31.4209 40.0869 31.2744 40.3213C31.1279 40.5654 30.9521 40.6875 30.7471 40.6875C30.3369 40.6875 30.1318 40.292 30.1318 39.501C30.1318 38.71 30.2295 37.8311 30.4248 36.8643C30.6201 35.9072 30.791 35.248 30.9375 34.8867L37.9688 17.5869C38.0664 17.333 38.1152 17.084 38.1152 16.8398C38.1152 16.5957 38.0322 16.3564 37.8662 16.1221L38.2764 15.8584C38.5596 16.2783 38.999 16.4883 39.5947 16.4883H46.333C46.9189 16.4883 47.3535 16.2783 47.6367 15.8584L48.0615 16.1221C47.8955 16.3564 47.8125 16.5811 47.8125 16.7959C47.8125 17.0107 47.8711 17.2695 47.9883 17.5723L55.2246 34.9014C55.4492 35.4482 55.7959 35.8779 56.2646 36.1904L56.0889 36.4688C55.6104 36.1562 55.0781 36 54.4922 36H51.6211C51.6406 36.2148 51.6504 36.3662 51.6504 36.4541C51.6504 36.7764 51.5186 36.9375 51.2549 36.9375C51.1377 36.9375 51.0303 36.8887 50.9326 36.791C50.8447 36.7031 50.8008 36.5713 50.8008 36.3955C50.8008 36.2295 50.8105 36.0977 50.8301 36H49.0576C48.6279 36 48.3496 36.2344 48.2227 36.7031C48.0664 37.2793 47.9883 37.9385 47.9883 38.6807C47.9883 39.4326 48.0371 40.1162 48.1348 40.7314C48.2324 41.3467 48.2812 41.7666 48.2812 41.9912C48.2812 42.2256 48.2227 42.4111 48.1055 42.5479C47.998 42.6943 47.8613 42.7676 47.6953 42.7676C47.5293 42.7676 47.3877 42.6992 47.2705 42.5625C47.1533 42.4258 47.0947 42.2354 47.0947 41.9912C47.0947 41.7471 47.1533 41.2734 47.2705 40.5703C47.3975 39.8672 47.4609 39.3398 47.4609 38.9883V34.8721C47.3633 34.6084 47.3145 34.3643 47.3145 34.1396C47.3145 33.915 47.4023 33.6758 47.5781 33.4219L47.1973 33.1436C46.9043 33.5635 46.4648 33.7734 45.8789 33.7734H39.8584C39.2725 33.7734 38.833 33.5684 38.54 33.1582L38.1592 33.4219C38.3447 33.6855 38.4375 33.9297 38.4375 34.1543C38.4375 34.3789 38.4033 34.6182 38.335 34.8721V34.8867C38.2471 35.2188 38.2031 35.4727 38.2031 35.6484C38.2031 35.8242 38.3008 36.0537 38.4961 36.3369L38.1152 36.6152C37.8223 36.2051 37.3828 36 36.7969 36H31.4941C31.4648 36.1855 31.4502 36.498 31.4502 36.9375ZM41.3672 29.7158H44.165C44.751 29.7158 45.2783 29.8721 45.7471 30.1846L45.9375 29.9062C45.4785 29.5938 45.1465 29.1592 44.9414 28.6025L43.0811 23.8418C42.8662 23.2852 42.7539 22.7188 42.7441 22.1426H42.5537C42.5342 22.7871 42.4365 23.3535 42.2607 23.8418L40.5762 28.5879C40.3711 29.1543 40.0439 29.5938 39.5947 29.9062L39.7852 30.1992C40.2441 29.877 40.7715 29.7158 41.3672 29.7158ZM50.874 40.8486C50.874 40.1748 51.001 39.3301 51.2549 38.3145C51.5381 39.4863 51.6797 40.248 51.6797 40.5996C51.6797 41.1172 51.543 41.376 51.2695 41.376C51.0059 41.376 50.874 41.2002 50.874 40.8486ZM64.0283 40.541L64.3799 36.5713C64.3799 36.2588 64.2041 36 63.8525 35.7949C63.2764 35.4727 62.5732 35.3115 61.7432 35.3115C60.6299 35.3115 59.8633 35.5312 59.4434 35.9707C59.2578 36.166 59.165 36.4492 59.165 36.8203C59.165 37.2012 59.2773 37.8604 59.502 38.7979C59.7266 39.7354 59.8389 40.3945 59.8389 40.7754C59.8389 41.166 59.7656 41.4736 59.6191 41.6982C59.4824 41.9326 59.2773 42.0498 59.0039 42.0498C58.7305 42.0498 58.5205 41.9326 58.374 41.6982C58.2275 41.4736 58.1543 41.166 58.1543 40.7754C58.1543 40.3848 58.2715 39.7109 58.5059 38.7539C58.75 37.7969 58.8721 37.0742 58.8721 36.5859L58.8574 18.627C58.8574 17.4746 58.5059 16.5127 57.8027 15.7412L58.1104 15.4336C58.9014 16.1367 59.8633 16.4883 60.9961 16.4883H65.376C66.001 16.4883 66.5283 16.415 66.958 16.2686C67.3975 16.1123 67.749 15.8096 68.0127 15.3604L68.4961 15.5947C68.2422 16.2002 68.1152 16.7715 68.1152 17.3086C68.1152 17.748 68.8867 18.8516 70.4297 20.6191C72.4414 22.9238 73.7354 24.4717 74.3115 25.2627C74.8877 26.0537 75.2637 26.6934 75.4395 27.1816H76.3184C75.8398 26.4785 75.6006 25.4873 75.6006 24.208C75.6006 23.6123 75.6738 22.7236 75.8203 21.542C75.9668 20.3506 76.04 19.457 76.04 18.8613C76.04 17.2598 75.5322 16.2197 74.5166 15.7412L74.8242 15.4336C75.6152 16.1367 76.5771 16.4883 77.71 16.4883H80.7129C81.8457 16.4883 82.8076 16.1367 83.5986 15.4336L83.8916 15.7412C83.1982 16.5225 82.8516 17.4844 82.8516 18.627L82.8223 36.5127C82.8223 36.9326 82.9199 37.5576 83.1152 38.3877C83.3105 39.2275 83.4082 39.8574 83.4082 40.2773C83.4082 40.9023 83.1689 41.2148 82.6904 41.2148C82.2119 41.2148 81.9727 40.9023 81.9727 40.2773C81.9727 39.8672 82.0654 39.2617 82.251 38.4609C82.4365 37.6699 82.5293 37.123 82.5293 36.8203C82.5293 36.5273 82.4316 36.3174 82.2363 36.1904C82.041 36.0635 81.8506 36 81.665 36H75.8789C75.0586 36 74.6484 36.7471 74.6484 38.2412C74.6484 38.8564 74.7607 39.7451 74.9854 40.9072C75.2197 42.0791 75.3369 42.9629 75.3369 43.5586C75.3369 44.4082 75.0195 44.833 74.3848 44.833C73.75 44.833 73.4326 44.4033 73.4326 43.5439C73.4326 42.9971 73.5547 42.2012 73.7988 41.1562C74.0527 40.1113 74.1846 39.3252 74.1943 38.7979L74.2236 36.8496C74.2529 35.9414 74.1602 35.3506 73.9453 35.0771L66.9287 26.1855C66.7432 25.9414 66.5381 25.4336 66.3135 24.6621L65.4199 24.6914C65.9277 25.2188 66.1816 25.8047 66.1816 26.4492V34.8135L66.46 42.2256C66.46 42.3818 66.4111 42.5137 66.3135 42.6211C66.2256 42.7383 66.0986 42.7969 65.9326 42.7969C65.7764 42.7969 65.6445 42.7285 65.5371 42.5918C65.4297 42.4648 65.376 42.3184 65.376 42.1523L65.5518 36.5273C65.5518 36.4102 65.5078 36.3027 65.4199 36.2051C65.332 36.1074 65.2295 36.0586 65.1123 36.0586C64.8584 36.0586 64.7314 36.2539 64.7314 36.6445C64.7314 37.0352 64.7949 37.6748 64.9219 38.5635C65.0586 39.4521 65.127 40.0625 65.127 40.3945C65.127 41.1367 64.9414 41.5078 64.5703 41.5078C64.209 41.5078 64.0283 41.1855 64.0283 40.541ZM95.7568 43.3096L96.0352 36.3516C93.0566 35.9316 90.7617 34.8574 89.1504 33.1289C87.5488 31.4004 86.748 29.042 86.748 26.0537C86.748 22.8701 87.793 20.4238 89.8828 18.7148C92.1875 16.8105 95.6104 15.8584 100.151 15.8584C107.427 15.8584 111.494 17.9482 112.354 22.1279C112.471 22.7334 112.729 23.1973 113.13 23.5195L112.881 23.8418C112.412 23.4902 111.904 23.3389 111.357 23.3877L105.718 23.7393C105.063 23.7881 104.639 24.0273 104.443 24.457L103.96 24.2227C104.058 24.0078 104.106 23.8223 104.106 23.666C104.106 23.1582 103.936 22.7188 103.594 22.3477C103.262 21.9668 102.837 21.6836 102.319 21.498C101.313 21.1367 100.337 20.9561 99.3896 20.9561C97.9443 20.9561 96.8164 21.4492 96.0059 22.4355C95.2051 23.4121 94.8047 24.6865 94.8047 26.2588C94.8047 27.8213 95.2588 29.1006 96.167 30.0967C97.085 31.083 98.3691 31.5762 100.02 31.5762C100.547 31.5762 101.133 31.4492 101.777 31.1953C102.432 30.9316 103.008 30.5557 103.506 30.0674C104.014 29.5791 104.268 29.0615 104.268 28.5146C104.268 28.3584 104.214 28.1631 104.106 27.9287L104.59 27.6797C104.824 28.1191 105.2 28.3584 105.718 28.3975C106.245 28.4365 106.924 28.4902 107.754 28.5586C109.58 28.7246 110.85 28.8076 111.562 28.8076C112.275 28.8076 112.837 28.6562 113.247 28.3535L113.481 28.6611C113.12 28.9346 112.847 29.4424 112.661 30.1846C112.485 30.917 112.139 31.625 111.621 32.3086C111.104 32.9824 110.518 33.5439 109.863 33.9932C109.219 34.4326 108.467 34.8184 107.607 35.1504C106.133 35.7363 104.517 36.1514 102.759 36.3955C102.759 37.2939 102.876 38.627 103.11 40.3945C103.345 42.1621 103.462 43.3389 103.462 43.9248C103.462 44.5107 103.389 44.9209 103.242 45.1553C103.105 45.3896 102.9 45.5068 102.627 45.5068C102.354 45.5068 102.144 45.3896 101.997 45.1553C101.851 44.9209 101.777 44.5449 101.777 44.0273C101.777 43.5195 101.855 42.5283 102.012 41.0537C102.178 39.5791 102.261 38.5928 102.261 38.0947C102.261 37.5967 102.236 37.2598 102.188 37.084C102.139 36.9082 102.08 36.7715 102.012 36.6738C101.943 36.5859 101.826 36.5176 101.66 36.4688C101.279 36.3711 100.82 36.3467 100.283 36.3955C99.209 36.4834 98.6719 36.6641 98.6719 36.9375L99.0234 40.9219C99.0234 41.5566 98.8379 41.874 98.4668 41.874C98.0957 41.874 97.9102 41.6055 97.9102 41.0684C97.9102 40.5312 97.9736 39.8184 98.1006 38.9297C98.2373 38.041 98.3057 37.4014 98.3057 37.0107C98.3057 36.6299 98.1787 36.4395 97.9248 36.4395C97.4268 36.4395 97.0898 36.4932 96.9141 36.6006C96.748 36.708 96.665 36.8057 96.665 36.8936L96.8262 43.2363C96.8262 43.4023 96.7725 43.5488 96.665 43.6758C96.5576 43.8125 96.4258 43.8809 96.2695 43.8809C96.1133 43.8809 95.9863 43.8223 95.8887 43.7051C95.8008 43.5977 95.7568 43.4658 95.7568 43.3096ZM123.545 43.8955L123.706 39.999C123.706 38.7393 123.657 37.9434 123.56 37.6113C123.472 37.2793 123.379 36.9863 123.281 36.7324C123.184 36.4785 123.057 36.2734 122.9 36.1172C122.744 35.9609 122.559 35.8145 122.344 35.6777C121.934 35.4043 121.289 35.2676 120.41 35.2676C119.531 35.2676 118.789 35.624 118.184 36.3369C117.588 37.0498 117.29 37.9043 117.29 38.9004C117.29 39.2715 117.363 39.8232 117.51 40.5557C117.656 41.2979 117.729 41.8545 117.729 42.2256C117.729 42.9287 117.48 43.2803 116.982 43.2803C116.484 43.2803 116.235 42.9385 116.235 42.2549C116.235 41.874 116.309 41.3027 116.455 40.541C116.611 39.7793 116.689 39.2031 116.689 38.8125L116.792 34.8867V17.6748C116.792 17.0693 116.602 16.5811 116.221 16.21L116.514 15.9023C116.924 16.293 117.412 16.4883 117.979 16.4883H123.281C123.867 16.4883 124.355 16.293 124.746 15.9023L125.039 16.21C124.658 16.5908 124.468 17.0791 124.468 17.6748V34.8135C124.468 35.3213 124.414 36.1953 124.307 37.4355C124.199 38.6855 124.165 39.6475 124.204 40.3213H124.189C124.551 41.9424 124.731 43.1777 124.731 44.0273C124.731 44.877 124.57 45.3018 124.248 45.3018C123.779 45.3018 123.545 44.833 123.545 43.8955ZM137.388 39.6182L137.681 37.5381C137.681 37.3037 137.632 36.9863 137.534 36.5859C137.446 36.1953 137.319 36 137.153 36H131.001C130.425 36 129.941 36.1904 129.551 36.5713L129.258 36.2783C129.629 35.9072 129.814 35.4189 129.814 34.8135V17.6748C129.814 17.0596 129.629 16.5713 129.258 16.21L129.551 15.9023C129.951 16.293 130.435 16.4883 131.001 16.4883H143.115C148.955 16.4883 152.578 18.3877 153.984 22.1865C154.375 23.2607 154.57 24.4814 154.57 25.8486C154.57 29.7158 153.525 32.4209 151.436 33.9639C150 35.0283 147.847 35.668 144.976 35.8828C143.862 35.9707 142.578 36.0098 141.123 36C139.668 36 138.818 36 138.574 36C138.408 36 138.267 36.2344 138.149 36.7031C138.032 37.1719 137.974 37.5234 137.974 37.7578L138.223 39.6328C138.223 40.0039 138.081 40.1895 137.798 40.1895C137.524 40.1895 137.388 39.999 137.388 39.6182ZM145.767 29.54C146.06 29.1494 146.289 28.6465 146.455 28.0312C146.621 27.4062 146.704 26.6592 146.704 25.79C146.704 24.9111 146.558 24.1787 146.265 23.5928C145.972 23.0068 145.581 22.5771 145.093 22.3037C144.604 22.0303 144.062 21.8301 143.467 21.7031C142.871 21.5664 142.246 21.4932 141.592 21.4834C140.947 21.4639 140.342 21.4492 139.775 21.4395C138.389 21.4199 137.5 21.2148 137.109 20.8242L136.816 21.1172C137.197 21.4883 137.388 21.9766 137.388 22.582C137.388 26.9473 137.397 29.75 137.417 30.9902H140.742C142.402 30.9902 143.579 30.8438 144.272 30.5508C144.976 30.2578 145.474 29.9209 145.767 29.54ZM164.971 20.2822L165.044 18.4072C165.044 17.333 164.834 16.5908 164.414 16.1807L164.707 15.8877C165.098 16.2686 165.581 16.459 166.157 16.459H185.391C185.986 16.459 186.475 16.2686 186.855 15.8877L187.148 16.1807C186.777 16.5518 186.592 17.04 186.592 17.6455L186.519 19.5205C186.519 20.5752 186.729 21.3125 187.148 21.7324L186.855 22.04C186.416 21.5908 185.703 21.3662 184.717 21.3662L181.479 21.5713C180.454 21.5713 179.717 21.3467 179.268 20.8975L178.96 21.1904C179.341 21.5615 179.531 22.0498 179.531 22.6553V34.8135C179.531 35.8291 179.619 37.3428 179.795 39.3545C179.98 41.3662 180.073 42.6895 180.073 43.3242C180.073 44.4375 179.873 44.9941 179.473 44.9941C179.072 44.9941 178.872 44.5986 178.872 43.8076C178.872 43.0166 178.936 41.9424 179.062 40.585C179.199 39.2373 179.268 38.2217 179.268 37.5381C179.268 36.4736 179.058 35.9414 178.638 35.9414C178.433 35.9414 178.271 36.0635 178.154 36.3076C178.037 36.5518 177.979 36.791 177.979 37.0254L178.315 40.0869C178.315 40.79 178.115 41.1416 177.715 41.1416C177.51 41.1416 177.358 41.0391 177.261 40.834C177.163 40.6289 177.114 40.3896 177.114 40.1162C177.114 39.8428 177.202 39.3936 177.378 38.7686C177.554 38.1533 177.642 37.6504 177.642 37.2598C177.642 36.8691 177.471 36.5713 177.129 36.3662C176.797 36.1611 176.372 36.0586 175.854 36.0586C175.347 36.0586 174.814 36.1611 174.258 36.3662C173.711 36.5713 173.228 36.8887 172.808 37.3184C172.388 37.7578 172.178 38.1875 172.178 38.6074C172.178 39.0371 172.241 39.5547 172.368 40.1602C172.505 40.7656 172.573 41.2686 172.573 41.6689C172.573 42.0791 172.393 42.2842 172.031 42.2842C171.621 42.2842 171.416 42.0645 171.416 41.625C171.416 41.1953 171.494 40.6484 171.65 39.9844C171.807 39.3203 171.885 38.8223 171.885 38.4902V34.6816C171.904 29.3301 171.914 25.3213 171.914 22.6553C171.914 22.04 172.1 21.5518 172.471 21.1904L172.178 20.8975C171.748 21.3369 171.035 21.5566 170.039 21.5566L166.89 21.3662C165.884 21.3662 165.156 21.5908 164.707 22.04L164.414 21.7324C164.785 21.3613 164.971 20.8779 164.971 20.2822ZM177.598 43.3535C177.832 44.4277 177.949 45.3604 177.949 46.1514C177.949 46.4932 177.827 46.6641 177.583 46.6641C177.339 46.6641 177.217 46.5078 177.217 46.1953C177.217 45.3164 177.344 44.3691 177.598 43.3535ZM202.104 38.373L202.207 36.9668C202.207 36.7227 202.09 36.5322 201.855 36.3955C201.621 36.2686 201.367 36.2051 201.094 36.2051C200.82 36.2051 200.576 36.2783 200.361 36.4248C200.146 36.5713 200.039 36.7812 200.039 37.0547V40.4238C200.039 40.9121 200.142 41.6299 200.347 42.5771C200.552 43.5244 200.654 44.1982 200.654 44.5986C200.654 45.0088 200.566 45.3457 200.391 45.6094C200.215 45.873 199.971 46.0049 199.658 46.0049C199.355 46.0049 199.126 45.8682 198.97 45.5947C198.813 45.3213 198.735 44.9648 198.735 44.5254C198.735 44.0859 198.848 43.3242 199.072 42.2402C199.297 41.1562 199.409 40.3164 199.409 39.7207C199.409 37.3086 198.96 36.1025 198.062 36.1025C196.851 36.1025 196.245 36.0537 196.245 35.9561V35.9854C196.245 36.6592 196.392 37.6455 196.685 38.9443C196.987 40.2529 197.139 41.1904 197.139 41.7568C197.139 42.3232 197.036 42.7871 196.831 43.1484C196.626 43.5195 196.309 43.7051 195.879 43.7051C195.459 43.7051 195.127 43.5293 194.883 43.1777C194.648 42.8262 194.531 42.3672 194.531 41.8008C194.531 41.2441 194.673 40.2822 194.956 38.915C195.239 37.5576 195.381 36.5273 195.381 35.8242C193.066 35.0918 191.323 33.8955 190.151 32.2354C188.989 30.5752 188.408 28.5244 188.408 26.083C188.408 21.0244 190.957 17.8311 196.055 16.5029C197.705 16.0732 199.409 15.8584 201.167 15.8584C202.935 15.8584 204.434 15.9561 205.664 16.1514C206.904 16.3467 208.101 16.6934 209.253 17.1914C210.415 17.6797 211.401 18.3047 212.212 19.0664C213.032 19.8184 213.687 20.7949 214.175 21.9961C214.663 23.1875 214.907 24.5498 214.907 26.083C214.907 29.208 214.028 31.6299 212.271 33.3486C210.513 35.0576 208.042 36.1074 204.858 36.498C204.819 36.5664 204.8 36.6738 204.8 36.8203L204.873 37.626C204.873 38.124 204.736 38.373 204.463 38.373C204.189 38.373 204.053 38.1338 204.053 37.6553L204.097 36.835C204.097 36.542 203.887 36.3955 203.467 36.3955C203.428 36.4834 203.408 36.6494 203.408 36.8936L203.481 38.3145C203.481 38.6074 203.428 38.8906 203.32 39.1641C203.213 39.4375 203.032 39.5742 202.778 39.5742C202.329 39.5742 202.104 39.1738 202.104 38.373ZM196.567 26.0977C196.567 29.6719 198.267 31.459 201.665 31.459C205.063 31.459 206.763 29.6719 206.763 26.0977C206.763 24.457 206.323 23.2021 205.444 22.333C204.565 21.4639 203.306 21.0293 201.665 21.0293C200.024 21.0293 198.765 21.4639 197.886 22.333C197.007 23.2021 196.567 24.457 196.567 26.0977ZM218.833 38.666L218.921 36.6299V17.6748C218.921 17.0693 218.73 16.5811 218.35 16.21L218.643 15.9023C219.053 16.293 219.541 16.4883 220.107 16.4883H229.497C230.093 16.4883 230.532 16.2783 230.815 15.8584L231.196 16.1367C231.021 16.3613 230.933 16.6836 230.933 17.1035C230.933 17.5234 231.089 18.1484 231.401 18.9785C231.714 19.7988 232.056 20.5801 232.427 21.3223C233.433 23.3145 233.936 24.9355 233.936 26.1855H234.141C234.141 24.8867 234.639 23.2607 235.635 21.3076C236.631 19.374 237.129 17.9189 237.129 16.9424C237.129 16.6494 237.036 16.3809 236.851 16.1367L237.246 15.8584C237.529 16.2783 237.969 16.4883 238.564 16.4883H247.954C248.54 16.4883 249.028 16.293 249.419 15.9023L249.712 16.21C249.331 16.5908 249.141 17.0791 249.141 17.6748V34.8135C249.141 35.5264 249.136 36.0146 249.126 36.2783L248.833 36.5713C248.638 36.1904 248.345 36 247.954 36H243.047C242.559 36 242.314 37.0107 242.314 39.0322C242.314 39.3838 242.383 39.8965 242.52 40.5703C242.666 41.2539 242.739 41.7568 242.739 42.0791C242.739 42.4014 242.676 42.6455 242.549 42.8115C242.432 42.9775 242.285 43.0605 242.109 43.0605C241.934 43.0605 241.777 42.9727 241.641 42.7969C241.514 42.6309 241.45 42.3965 241.45 42.0938C241.45 41.791 241.509 41.3027 241.626 40.6289C241.753 39.9648 241.816 39.4766 241.816 39.1641L241.86 34.8135V23.4609C241.86 22.8457 241.909 22.2598 242.007 21.7031L241.904 21.6885C241.709 22.6455 241.191 24.1445 240.352 26.1855C239.512 28.2266 238.735 30.1455 238.022 31.9424C237.31 33.7393 236.953 34.9502 236.953 35.5752L237.012 38.9004C237.021 39.4863 237.139 40.3652 237.363 41.5371C237.588 42.7188 237.7 43.5635 237.7 44.0713C237.7 44.5889 237.617 44.9697 237.451 45.2139C237.285 45.4678 237.095 45.5947 236.88 45.5947C236.675 45.5947 236.499 45.4775 236.353 45.2432C236.216 45.0186 236.147 44.6377 236.147 44.1006C236.147 43.5635 236.216 42.6797 236.353 41.4492C236.489 40.2188 236.558 39.3252 236.558 38.7686C236.558 38.2217 236.528 37.7627 236.47 37.3916C236.411 37.0303 236.338 36.7275 236.25 36.4834C236.172 36.249 236.055 36.0488 235.898 35.8828C235.742 35.707 235.596 35.5752 235.459 35.4873C235.322 35.3994 235.146 35.3311 234.932 35.2822C233.818 35.0283 232.891 35.1455 232.148 35.6338C231.689 35.9365 231.46 36.3125 231.46 36.7617L231.636 38.3584C231.636 38.7197 231.504 38.9004 231.24 38.9004C230.977 38.9004 230.845 38.7051 230.845 38.3145L231.094 35.5752C231.094 34.9209 230.732 33.71 230.01 31.9424C229.297 30.165 228.521 28.2656 227.681 26.2441C226.841 24.2227 226.328 22.7041 226.143 21.6885L226.055 21.7031C226.152 22.2598 226.201 22.8457 226.201 23.4609V37.9336C226.201 38.0996 226.274 38.7588 226.421 39.9111C226.577 41.0635 226.655 41.8789 226.655 42.3574C226.655 42.8359 226.553 43.2021 226.348 43.4561C226.152 43.7197 225.923 43.8516 225.659 43.8516C225.396 43.8516 225.166 43.7295 224.971 43.4854C224.785 43.2412 224.692 42.9043 224.692 42.4746C224.692 42.0547 224.766 41.3076 224.912 40.2334C225.068 39.1689 225.146 38.4316 225.146 38.0215L225.161 37.5967C225.161 37.3428 225.098 37.1572 224.971 37.04C224.717 36.7959 223.73 36.6738 222.012 36.6738C220.303 36.6738 219.448 36.6836 219.448 36.7031L219.492 38.6367C219.492 38.8613 219.38 38.9736 219.155 38.9736C218.94 38.9736 218.833 38.8711 218.833 38.666ZM252.847 36.9375L252.891 39.2666C252.891 39.7354 252.817 40.0869 252.671 40.3213C252.524 40.5654 252.349 40.6875 252.144 40.6875C251.733 40.6875 251.528 40.292 251.528 39.501C251.528 38.71 251.626 37.8311 251.821 36.8643C252.017 35.9072 252.188 35.248 252.334 34.8867L259.365 17.5869C259.463 17.333 259.512 17.084 259.512 16.8398C259.512 16.5957 259.429 16.3564 259.263 16.1221L259.673 15.8584C259.956 16.2783 260.396 16.4883 260.991 16.4883H267.729C268.315 16.4883 268.75 16.2783 269.033 15.8584L269.458 16.1221C269.292 16.3564 269.209 16.5811 269.209 16.7959C269.209 17.0107 269.268 17.2695 269.385 17.5723L276.621 34.9014C276.846 35.4482 277.192 35.8779 277.661 36.1904L277.485 36.4688C277.007 36.1562 276.475 36 275.889 36H273.018C273.037 36.2148 273.047 36.3662 273.047 36.4541C273.047 36.7764 272.915 36.9375 272.651 36.9375C272.534 36.9375 272.427 36.8887 272.329 36.791C272.241 36.7031 272.197 36.5713 272.197 36.3955C272.197 36.2295 272.207 36.0977 272.227 36H270.454C270.024 36 269.746 36.2344 269.619 36.7031C269.463 37.2793 269.385 37.9385 269.385 38.6807C269.385 39.4326 269.434 40.1162 269.531 40.7314C269.629 41.3467 269.678 41.7666 269.678 41.9912C269.678 42.2256 269.619 42.4111 269.502 42.5479C269.395 42.6943 269.258 42.7676 269.092 42.7676C268.926 42.7676 268.784 42.6992 268.667 42.5625C268.55 42.4258 268.491 42.2354 268.491 41.9912C268.491 41.7471 268.55 41.2734 268.667 40.5703C268.794 39.8672 268.857 39.3398 268.857 38.9883V34.8721C268.76 34.6084 268.711 34.3643 268.711 34.1396C268.711 33.915 268.799 33.6758 268.975 33.4219L268.594 33.1436C268.301 33.5635 267.861 33.7734 267.275 33.7734H261.255C260.669 33.7734 260.229 33.5684 259.937 33.1582L259.556 33.4219C259.741 33.6855 259.834 33.9297 259.834 34.1543C259.834 34.3789 259.8 34.6182 259.731 34.8721V34.8867C259.644 35.2188 259.6 35.4727 259.6 35.6484C259.6 35.8242 259.697 36.0537 259.893 36.3369L259.512 36.6152C259.219 36.2051 258.779 36 258.193 36H252.891C252.861 36.1855 252.847 36.498 252.847 36.9375ZM262.764 29.7158H265.562C266.147 29.7158 266.675 29.8721 267.144 30.1846L267.334 29.9062C266.875 29.5938 266.543 29.1592 266.338 28.6025L264.478 23.8418C264.263 23.2852 264.15 22.7188 264.141 22.1426H263.95C263.931 22.7871 263.833 23.3535 263.657 23.8418L261.973 28.5879C261.768 29.1543 261.44 29.5938 260.991 29.9062L261.182 30.1992C261.641 29.877 262.168 29.7158 262.764 29.7158ZM272.271 40.8486C272.271 40.1748 272.397 39.3301 272.651 38.3145C272.935 39.4863 273.076 40.248 273.076 40.5996C273.076 41.1172 272.939 41.376 272.666 41.376C272.402 41.376 272.271 41.2002 272.271 40.8486ZM276.211 20.2822L276.284 18.4072C276.284 17.333 276.074 16.5908 275.654 16.1807L275.947 15.8877C276.338 16.2686 276.821 16.459 277.397 16.459H296.631C297.227 16.459 297.715 16.2686 298.096 15.8877L298.389 16.1807C298.018 16.5518 297.832 17.04 297.832 17.6455L297.759 19.5205C297.759 20.5752 297.969 21.3125 298.389 21.7324L298.096 22.04C297.656 21.5908 296.943 21.3662 295.957 21.3662L292.72 21.5713C291.694 21.5713 290.957 21.3467 290.508 20.8975L290.2 21.1904C290.581 21.5615 290.771 22.0498 290.771 22.6553V34.8135C290.771 35.8291 290.859 37.3428 291.035 39.3545C291.221 41.3662 291.313 42.6895 291.313 43.3242C291.313 44.4375 291.113 44.9941 290.713 44.9941C290.312 44.9941 290.112 44.5986 290.112 43.8076C290.112 43.0166 290.176 41.9424 290.303 40.585C290.439 39.2373 290.508 38.2217 290.508 37.5381C290.508 36.4736 290.298 35.9414 289.878 35.9414C289.673 35.9414 289.512 36.0635 289.395 36.3076C289.277 36.5518 289.219 36.791 289.219 37.0254L289.556 40.0869C289.556 40.79 289.355 41.1416 288.955 41.1416C288.75 41.1416 288.599 41.0391 288.501 40.834C288.403 40.6289 288.354 40.3896 288.354 40.1162C288.354 39.8428 288.442 39.3936 288.618 38.7686C288.794 38.1533 288.882 37.6504 288.882 37.2598C288.882 36.8691 288.711 36.5713 288.369 36.3662C288.037 36.1611 287.612 36.0586 287.095 36.0586C286.587 36.0586 286.055 36.1611 285.498 36.3662C284.951 36.5713 284.468 36.8887 284.048 37.3184C283.628 37.7578 283.418 38.1875 283.418 38.6074C283.418 39.0371 283.481 39.5547 283.608 40.1602C283.745 40.7656 283.813 41.2686 283.813 41.6689C283.813 42.0791 283.633 42.2842 283.271 42.2842C282.861 42.2842 282.656 42.0645 282.656 41.625C282.656 41.1953 282.734 40.6484 282.891 39.9844C283.047 39.3203 283.125 38.8223 283.125 38.4902V34.6816C283.145 29.3301 283.154 25.3213 283.154 22.6553C283.154 22.04 283.34 21.5518 283.711 21.1904L283.418 20.8975C282.988 21.3369 282.275 21.5566 281.279 21.5566L278.13 21.3662C277.124 21.3662 276.396 21.5908 275.947 22.04L275.654 21.7324C276.025 21.3613 276.211 20.8779 276.211 20.2822ZM288.838 43.3535C289.072 44.4277 289.189 45.3604 289.189 46.1514C289.189 46.4932 289.067 46.6641 288.823 46.6641C288.579 46.6641 288.457 46.5078 288.457 46.1953C288.457 45.3164 288.584 44.3691 288.838 43.3535ZM308.643 43.8955L308.804 39.999C308.804 38.7393 308.755 37.9434 308.657 37.6113C308.569 37.2793 308.477 36.9863 308.379 36.7324C308.281 36.4785 308.154 36.2734 307.998 36.1172C307.842 35.9609 307.656 35.8145 307.441 35.6777C307.031 35.4043 306.387 35.2676 305.508 35.2676C304.629 35.2676 303.887 35.624 303.281 36.3369C302.686 37.0498 302.388 37.9043 302.388 38.9004C302.388 39.2715 302.461 39.8232 302.607 40.5557C302.754 41.2979 302.827 41.8545 302.827 42.2256C302.827 42.9287 302.578 43.2803 302.08 43.2803C301.582 43.2803 301.333 42.9385 301.333 42.2549C301.333 41.874 301.406 41.3027 301.553 40.541C301.709 39.7793 301.787 39.2031 301.787 38.8125L301.89 34.8867V17.6748C301.89 17.0693 301.699 16.5811 301.318 16.21L301.611 15.9023C302.021 16.293 302.51 16.4883 303.076 16.4883H308.379C308.965 16.4883 309.453 16.293 309.844 15.9023L310.137 16.21C309.756 16.5908 309.565 17.0791 309.565 17.6748V34.8135C309.565 35.3213 309.512 36.1953 309.404 37.4355C309.297 38.6855 309.263 39.6475 309.302 40.3213H309.287C309.648 41.9424 309.829 43.1777 309.829 44.0273C309.829 44.877 309.668 45.3018 309.346 45.3018C308.877 45.3018 308.643 44.833 308.643 43.8955ZM335.259 32.1328L335.2 34.0371C335.2 35.1016 335.415 35.8486 335.845 36.2783L335.537 36.5713C335.166 36.1904 334.678 36 334.072 36H329.81C329.819 36.1367 329.824 36.3174 329.824 36.542C329.824 37.0889 329.688 37.3623 329.414 37.3623C329.141 37.3623 329.004 37.0547 329.004 36.4395C329.004 36.2539 329.009 36.1074 329.019 36H315.908C315.674 36 315.469 36.4199 315.293 37.2598C315.127 38.1094 315.044 38.7881 315.044 39.2959C315.044 39.8037 315.161 40.7119 315.396 42.0205C315.63 43.3389 315.747 44.3643 315.747 45.0967C315.747 45.8389 315.459 46.21 314.883 46.21C314.258 46.21 313.945 45.8291 313.945 45.0674C313.945 44.3057 314.077 43.2461 314.341 41.8887C314.604 40.541 314.736 39.5254 314.736 38.8418L314.722 17.6748C314.722 17.0791 314.526 16.5908 314.136 16.21L314.443 15.9023C314.844 16.293 315.332 16.4883 315.908 16.4883H321.152C321.748 16.4883 322.236 16.293 322.617 15.9023L322.925 16.21C322.534 16.5908 322.339 17.0791 322.339 17.6748V29.7598C322.339 30.3457 322.148 30.8291 321.768 31.21L322.075 31.5176C322.573 31.0195 323.662 30.7705 325.342 30.7705L332.285 31.1221C333.955 31.1221 335.039 30.873 335.537 30.375L335.845 30.668C335.454 31.0488 335.259 31.5371 335.259 32.1328ZM329.912 42.5039C329.912 42.9043 329.746 43.1045 329.414 43.1045C329.082 43.1045 328.916 42.8652 328.916 42.3867C328.916 41.9668 328.994 41.4492 329.15 40.834C329.316 40.2285 329.404 39.9014 329.414 39.8525C329.434 39.9502 329.482 40.1504 329.561 40.4531C329.639 40.7559 329.697 40.9902 329.736 41.1562C329.854 41.6543 329.912 42.1035 329.912 42.5039ZM359.751 32.1328L359.692 34.0371C359.692 35.1016 359.907 35.8486 360.337 36.2783L360.029 36.5713C359.658 36.1904 359.17 36 358.564 36H354.302C354.312 36.1367 354.316 36.3174 354.316 36.542C354.316 37.0889 354.18 37.3623 353.906 37.3623C353.633 37.3623 353.496 37.0547 353.496 36.4395C353.496 36.2539 353.501 36.1074 353.511 36H340.4C340.166 36 339.961 36.4199 339.785 37.2598C339.619 38.1094 339.536 38.7881 339.536 39.2959C339.536 39.8037 339.653 40.7119 339.888 42.0205C340.122 43.3389 340.239 44.3643 340.239 45.0967C340.239 45.8389 339.951 46.21 339.375 46.21C338.75 46.21 338.438 45.8291 338.438 45.0674C338.438 44.3057 338.569 43.2461 338.833 41.8887C339.097 40.541 339.229 39.5254 339.229 38.8418L339.214 17.6748C339.214 17.0791 339.019 16.5908 338.628 16.21L338.936 15.9023C339.336 16.293 339.824 16.4883 340.4 16.4883H345.645C346.24 16.4883 346.729 16.293 347.109 15.9023L347.417 16.21C347.026 16.5908 346.831 17.0791 346.831 17.6748V29.7598C346.831 30.3457 346.641 30.8291 346.26 31.21L346.567 31.5176C347.065 31.0195 348.154 30.7705 349.834 30.7705L356.777 31.1221C358.447 31.1221 359.531 30.873 360.029 30.375L360.337 30.668C359.946 31.0488 359.751 31.5371 359.751 32.1328ZM354.404 42.5039C354.404 42.9043 354.238 43.1045 353.906 43.1045C353.574 43.1045 353.408 42.8652 353.408 42.3867C353.408 41.9668 353.486 41.4492 353.643 40.834C353.809 40.2285 353.896 39.9014 353.906 39.8525C353.926 39.9502 353.975 40.1504 354.053 40.4531C354.131 40.7559 354.189 40.9902 354.229 41.1562C354.346 41.6543 354.404 42.1035 354.404 42.5039ZM377.492 38.6104L377.604 37.0635C377.604 36.7949 377.476 36.5854 377.218 36.4351C376.96 36.2954 376.681 36.2256 376.38 36.2256C376.079 36.2256 375.811 36.3062 375.574 36.4673C375.338 36.6284 375.22 36.8594 375.22 37.1602V40.8662C375.22 41.4033 375.333 42.1929 375.558 43.2349C375.784 44.2769 375.896 45.0181 375.896 45.4585C375.896 45.9097 375.8 46.2803 375.606 46.5703C375.413 46.8604 375.145 47.0054 374.801 47.0054C374.468 47.0054 374.215 46.855 374.043 46.5542C373.872 46.2534 373.786 45.8613 373.786 45.3779C373.786 44.8945 373.909 44.0566 374.156 42.8643C374.403 41.6719 374.527 40.748 374.527 40.0928C374.527 37.4395 374.033 36.1128 373.044 36.1128C371.712 36.1128 371.046 36.0591 371.046 35.9517V35.9839C371.046 36.7251 371.208 37.8101 371.53 39.2388C371.863 40.6782 372.029 41.7095 372.029 42.3325C372.029 42.9556 371.917 43.4658 371.691 43.8633C371.465 44.2715 371.116 44.4756 370.644 44.4756C370.182 44.4756 369.816 44.2822 369.548 43.8955C369.29 43.5088 369.161 43.0039 369.161 42.3809C369.161 41.7686 369.317 40.7104 369.628 39.2065C369.94 37.7134 370.096 36.5801 370.096 35.8066C367.55 35.001 365.632 33.6851 364.343 31.8589C363.065 30.0327 362.426 27.7769 362.426 25.0913C362.426 19.5269 365.229 16.0142 370.837 14.5532C372.652 14.0806 374.527 13.8442 376.46 13.8442C378.405 13.8442 380.054 13.9517 381.407 14.1665C382.771 14.3813 384.087 14.7627 385.355 15.3105C386.633 15.8477 387.718 16.5352 388.61 17.373C389.512 18.2002 390.232 19.2744 390.769 20.5957C391.306 21.9062 391.575 23.4048 391.575 25.0913C391.575 28.5288 390.608 31.1929 388.674 33.0835C386.741 34.9634 384.023 36.1182 380.521 36.5479C380.478 36.623 380.457 36.7412 380.457 36.9023L380.537 37.7886C380.537 38.3364 380.387 38.6104 380.086 38.6104C379.785 38.6104 379.635 38.3472 379.635 37.8208L379.683 36.9185C379.683 36.5962 379.452 36.4351 378.99 36.4351C378.947 36.5317 378.926 36.7144 378.926 36.9829L379.006 38.5459C379.006 38.8682 378.947 39.1797 378.829 39.4805C378.711 39.7812 378.512 39.9316 378.233 39.9316C377.739 39.9316 377.492 39.4912 377.492 38.6104ZM371.401 25.1074C371.401 29.0391 373.27 31.0049 377.008 31.0049C380.747 31.0049 382.616 29.0391 382.616 25.1074C382.616 23.3027 382.132 21.9224 381.166 20.9663C380.199 20.0103 378.813 19.5322 377.008 19.5322C375.204 19.5322 373.818 20.0103 372.851 20.9663C371.884 21.9224 371.401 23.3027 371.401 25.1074ZM404.364 40.2773L404.511 38.7979V36.0586C401.884 35.9219 399.921 35.5654 398.622 34.9893C397.323 34.4033 396.366 33.6709 395.751 32.792C395.38 32.2744 395.092 31.6982 394.887 31.0635C394.691 30.4189 394.364 29.9355 393.905 29.6133L394.125 29.3057C394.564 29.5986 395.038 29.7451 395.546 29.7451C396.063 29.7451 396.723 29.7256 397.523 29.6865C398.324 29.6475 399.228 29.6035 400.233 29.5547C401.239 29.4961 401.957 29.457 402.387 29.4375C402.816 29.418 403.134 29.3594 403.339 29.2617C403.544 29.1543 403.69 28.9639 403.778 28.6904L404.438 28.9102C404.408 28.9883 404.394 29.0908 404.394 29.2178C404.394 29.54 404.662 29.9062 405.199 30.3164C405.736 30.7266 406.708 30.9316 408.114 30.9316C409.062 30.9316 409.735 30.7705 410.136 30.4482C410.312 30.3018 410.399 30.126 410.399 29.9209C410.399 29.4424 410.136 29.125 409.608 28.9688C409.081 28.8125 408.441 28.6807 407.689 28.5732C406.947 28.4561 406.2 28.3633 405.448 28.2949C404.706 28.2266 403.9 28.1289 403.031 28.002C402.162 27.875 401.342 27.7383 400.57 27.5918C399.799 27.4355 399.047 27.2109 398.314 26.918C397.592 26.625 396.972 26.2832 396.454 25.8926C395.937 25.4922 395.517 24.9844 395.194 24.3691C394.882 23.7441 394.726 23.0361 394.726 22.2451C394.726 21.4541 394.848 20.7314 395.092 20.0771C395.346 19.4229 395.688 18.8613 396.117 18.3926C396.547 17.9238 397.064 17.5088 397.67 17.1475C398.285 16.7861 398.925 16.4932 399.589 16.2686C400.263 16.0439 400.995 15.8633 401.786 15.7266C403.163 15.4727 404.462 15.3457 405.683 15.3457C406.903 15.3457 407.831 15.3652 408.466 15.4043C409.11 15.4336 409.862 15.4971 410.722 15.5947C411.591 15.6826 412.372 15.834 413.065 16.0488C413.769 16.2539 414.462 16.5176 415.146 16.8398C416.571 17.5039 417.572 18.5342 418.148 19.9307C418.383 20.4287 418.705 20.8926 419.115 21.3223L418.925 21.6592C418.515 21.376 418.041 21.2344 417.504 21.2344H417.313C416.532 21.2637 415.414 21.3223 413.959 21.4102C412.514 21.4883 411.581 21.5371 411.161 21.5566C410.751 21.5762 410.453 21.6348 410.268 21.7324C410.092 21.8301 409.965 22.0156 409.887 22.2891L409.242 22.1133C409.271 22.0254 409.286 21.9326 409.286 21.835C409.286 21.4248 408.954 21.0732 408.29 20.7803C407.626 20.4775 406.874 20.3262 406.034 20.3262C404.394 20.3262 403.573 20.6484 403.573 21.293C403.573 21.8691 404.804 22.2891 407.265 22.5527C407.841 22.6211 408.495 22.6895 409.228 22.7578C411.776 23.0215 413.729 23.3682 415.087 23.7979C417.938 24.6963 419.364 26.4102 419.364 28.9395C419.364 29.9746 419.149 30.9072 418.72 31.7373C418.29 32.5576 417.729 33.2266 417.035 33.7441C416.352 34.2617 415.541 34.6914 414.604 35.0332C412.914 35.6484 410.985 35.9561 408.817 35.9561C408.231 35.9561 407.885 35.9512 407.777 35.9414C407.25 35.9414 406.986 36.3467 406.986 37.1572V37.5088C406.986 37.7725 407.05 38.1582 407.177 38.666C407.313 39.1836 407.382 39.5693 407.382 39.8232C407.382 40.3408 407.201 40.5996 406.84 40.5996C406.654 40.5996 406.508 40.5215 406.4 40.3652C406.303 40.209 406.254 40.0137 406.254 39.7793C406.254 39.5449 406.312 39.1445 406.43 38.5781C406.557 38.0215 406.62 37.6162 406.62 37.3623C406.62 37.1084 406.615 36.9277 406.605 36.8203C406.605 36.7227 406.591 36.5957 406.562 36.4395C406.542 36.293 406.503 36.1855 406.444 36.1172C406.308 35.9414 406.073 35.8535 405.741 35.8535C405.136 35.8535 404.833 36.3809 404.833 37.4355L404.921 39.8379C404.921 40.4824 404.828 40.8047 404.643 40.8047C404.457 40.8047 404.364 40.6289 404.364 40.2773Z" fill="white"/>
</svg>
