<svg width="426" height="57" viewBox="0 0 426 57" fill="none" xmlns="http://www.w3.org/2000/svg">
<g filter="url(#filter0_d_310_1215)">
<ellipse cx="378" cy="24" rx="11" ry="10" fill="#7F923C"/>
<path d="M378.123 16.3775C378.123 15.0059 377.709 12.8785 378.402 11.6303C378.706 11.083 378.687 10.7153 379.178 10.1513C379.772 9.4678 380.347 8.50305 381.101 8" stroke="#7F923C" stroke-linecap="round"/>
<path d="M27.8984 40.8047L28.2207 37.7725C28.2207 36.542 27.7178 35.6045 26.7119 34.96C25.7158 34.3057 24.666 34.0176 23.5625 34.0957C22.459 34.1641 21.6875 34.5352 21.248 35.209C21.0234 35.5312 20.9111 35.9121 20.9111 36.3516L20.8379 40.2773C20.8379 40.8145 20.9209 41.6104 21.0869 42.665C21.2529 43.7295 21.3359 44.5303 21.3359 45.0674C21.3359 46.0146 21.0674 46.4883 20.5303 46.4883C19.9932 46.4883 19.7246 46.0293 19.7246 45.1113C19.7246 44.5059 19.8125 43.6367 19.9883 42.5039C20.1641 41.3711 20.2617 40.5117 20.2812 39.9258C20.3105 39.3398 20.3252 38.0898 20.3252 36.1758C20.3252 35.668 20.1689 35.082 19.8564 34.418C19.5439 33.7539 19.0508 32.8408 18.377 31.6787C17.7031 30.5166 17.1514 29.4912 16.7217 28.6025L16.2822 28.3535C16.0479 28.7832 15.6328 28.998 15.0371 28.998L13.8066 29.042C12.9668 29.042 12.3369 28.8369 11.917 28.4268L11.6094 28.7197C11.6387 29.0811 11.6533 29.8525 11.6533 31.0342L11.6387 34.623C11.6387 35.6973 11.6582 36.4883 11.6973 36.9961L11.9756 39.1494C11.9756 39.5498 11.8389 39.75 11.5654 39.75C11.292 39.75 11.1553 39.5645 11.1553 39.1934L11.3896 37.377C11.3896 36.9375 11.2578 36.5859 10.9941 36.3223C10.7402 36.0684 10.4033 35.9414 9.9834 35.9414C9.57324 35.9414 9.20703 36.1221 8.88477 36.4834C8.57227 36.8545 8.41602 37.333 8.41602 37.9189C8.41602 38.5049 8.52344 39.2959 8.73828 40.292C8.95312 41.2979 9.06055 42.0205 9.06055 42.46C9.06055 43.3779 8.7334 43.8369 8.0791 43.8369C7.4248 43.8369 7.09766 43.3877 7.09766 42.4893C7.09766 42.0693 7.19043 41.3369 7.37598 40.292C7.57129 39.2471 7.66895 38.417 7.66895 37.8018C7.66895 37.1865 7.52734 36.6787 7.24414 36.2783C6.96094 35.8877 6.63867 35.6924 6.27734 35.6924C5.91602 35.6924 5.6084 35.8145 5.35449 36.0586C5.10059 36.3125 4.97363 36.625 4.97363 36.9961L5.36914 40.4678C5.36914 41.0635 5.14941 41.3613 4.70996 41.3613C4.27051 41.3613 4.05078 41.0586 4.05078 40.4531C4.05078 40.1016 4.14355 39.4863 4.3291 38.6074C4.51465 37.7383 4.60254 37.0596 4.59277 36.5713C4.58301 36.083 4.57812 29.7646 4.57812 17.6162C4.57812 17.0107 4.39258 16.5273 4.02148 16.166L4.31445 15.873C4.69531 16.2441 5.17871 16.4297 5.76465 16.4297H18.8896C20.9404 16.4297 22.3174 16.4932 23.0205 16.6201C23.7334 16.7373 24.3535 16.8643 24.8809 17.001C25.418 17.1377 25.8672 17.3086 26.2285 17.5137C26.5996 17.709 26.9707 17.958 27.3418 18.2607C27.7227 18.5537 28.0254 18.8906 28.25 19.2715C28.7676 20.1406 29.0264 21.0635 29.0264 22.04C29.0264 23.0166 28.9482 23.8174 28.792 24.4424C28.6455 25.0576 28.3965 25.6387 28.0449 26.1855C27.2832 27.3672 25.9453 27.958 24.0312 27.958L23.9141 28.2949C24.5293 28.5391 24.9395 28.876 25.1445 29.3057C26.0039 31.1807 26.6387 32.3721 27.0488 32.8799C27.459 33.3779 27.8398 33.7783 28.1914 34.0811C28.543 34.3838 29.0459 34.6914 29.7002 35.0039C30.3545 35.3164 30.75 35.5215 30.8867 35.6191C31.0234 35.707 31.0918 35.7803 31.0918 35.8389C31.0918 36.8154 31.2236 38.0703 31.4873 39.6035C31.751 41.1367 31.8828 42.123 31.8828 42.5625C31.8828 43.002 31.8633 43.3193 31.8242 43.5146C31.7949 43.71 31.7217 43.9004 31.6045 44.0859C31.4873 44.2812 31.3164 44.3789 31.0918 44.3789C30.8672 44.3789 30.6963 44.2178 30.5791 43.8955C30.4717 43.5732 30.418 43.1777 30.418 42.709C30.418 42.2402 30.4814 41.4004 30.6084 40.1895C30.7354 38.9883 30.7988 38.0801 30.7988 37.4648C30.7988 36.2441 30.4033 35.6338 29.6123 35.6338C29.2217 35.6338 28.9287 35.7021 28.7334 35.8389C28.5479 35.9756 28.4551 36.2539 28.4551 36.6738C28.4551 37.1035 28.543 37.7822 28.7188 38.71C28.8945 39.6377 28.9824 40.3359 28.9824 40.8047C28.9824 41.2832 28.8018 41.5225 28.4404 41.5225C28.0791 41.5225 27.8984 41.2832 27.8984 40.8047ZM18.1426 21.293L14.6855 21.3955C13.2695 21.3955 12.3467 21.1855 11.917 20.7656L11.6094 21.0439C12 21.4248 12.1953 21.9131 12.1953 22.5088V23.4902C12.1953 24.0762 12 24.5645 11.6094 24.9551L11.917 25.248C12.3369 24.8184 13.2061 24.6035 14.5244 24.6035L18.2305 24.7354C19.2168 24.7354 19.9785 24.6084 20.5156 24.3545C21.0625 24.0908 21.3359 23.6123 21.3359 22.9189C21.3359 22.4795 21.1846 22.1377 20.8818 21.8936C20.5791 21.6396 20.2129 21.4785 19.7832 21.4102C19.3535 21.332 18.8066 21.293 18.1426 21.293ZM33.4502 36.9375L33.4941 39.2666C33.4941 39.7354 33.4209 40.0869 33.2744 40.3213C33.1279 40.5654 32.9521 40.6875 32.7471 40.6875C32.3369 40.6875 32.1318 40.292 32.1318 39.501C32.1318 38.71 32.2295 37.8311 32.4248 36.8643C32.6201 35.9072 32.791 35.248 32.9375 34.8867L39.9688 17.5869C40.0664 17.333 40.1152 17.084 40.1152 16.8398C40.1152 16.5957 40.0322 16.3564 39.8662 16.1221L40.2764 15.8584C40.5596 16.2783 40.999 16.4883 41.5947 16.4883H48.333C48.9189 16.4883 49.3535 16.2783 49.6367 15.8584L50.0615 16.1221C49.8955 16.3564 49.8125 16.5811 49.8125 16.7959C49.8125 17.0107 49.8711 17.2695 49.9883 17.5723L57.2246 34.9014C57.4492 35.4482 57.7959 35.8779 58.2646 36.1904L58.0889 36.4688C57.6104 36.1562 57.0781 36 56.4922 36H53.6211C53.6406 36.2148 53.6504 36.3662 53.6504 36.4541C53.6504 36.7764 53.5186 36.9375 53.2549 36.9375C53.1377 36.9375 53.0303 36.8887 52.9326 36.791C52.8447 36.7031 52.8008 36.5713 52.8008 36.3955C52.8008 36.2295 52.8105 36.0977 52.8301 36H51.0576C50.6279 36 50.3496 36.2344 50.2227 36.7031C50.0664 37.2793 49.9883 37.9385 49.9883 38.6807C49.9883 39.4326 50.0371 40.1162 50.1348 40.7314C50.2324 41.3467 50.2812 41.7666 50.2812 41.9912C50.2812 42.2256 50.2227 42.4111 50.1055 42.5479C49.998 42.6943 49.8613 42.7676 49.6953 42.7676C49.5293 42.7676 49.3877 42.6992 49.2705 42.5625C49.1533 42.4258 49.0947 42.2354 49.0947 41.9912C49.0947 41.7471 49.1533 41.2734 49.2705 40.5703C49.3975 39.8672 49.4609 39.3398 49.4609 38.9883V34.8721C49.3633 34.6084 49.3145 34.3643 49.3145 34.1396C49.3145 33.915 49.4023 33.6758 49.5781 33.4219L49.1973 33.1436C48.9043 33.5635 48.4648 33.7734 47.8789 33.7734H41.8584C41.2725 33.7734 40.833 33.5684 40.54 33.1582L40.1592 33.4219C40.3447 33.6855 40.4375 33.9297 40.4375 34.1543C40.4375 34.3789 40.4033 34.6182 40.335 34.8721V34.8867C40.2471 35.2188 40.2031 35.4727 40.2031 35.6484C40.2031 35.8242 40.3008 36.0537 40.4961 36.3369L40.1152 36.6152C39.8223 36.2051 39.3828 36 38.7969 36H33.4941C33.4648 36.1855 33.4502 36.498 33.4502 36.9375ZM43.3672 29.7158H46.165C46.751 29.7158 47.2783 29.8721 47.7471 30.1846L47.9375 29.9062C47.4785 29.5938 47.1465 29.1592 46.9414 28.6025L45.0811 23.8418C44.8662 23.2852 44.7539 22.7188 44.7441 22.1426H44.5537C44.5342 22.7871 44.4365 23.3535 44.2607 23.8418L42.5762 28.5879C42.3711 29.1543 42.0439 29.5938 41.5947 29.9062L41.7852 30.1992C42.2441 29.877 42.7715 29.7158 43.3672 29.7158ZM52.874 40.8486C52.874 40.1748 53.001 39.3301 53.2549 38.3145C53.5381 39.4863 53.6797 40.248 53.6797 40.5996C53.6797 41.1172 53.543 41.376 53.2695 41.376C53.0059 41.376 52.874 41.2002 52.874 40.8486ZM66.0283 40.541L66.3799 36.5713C66.3799 36.2588 66.2041 36 65.8525 35.7949C65.2764 35.4727 64.5732 35.3115 63.7432 35.3115C62.6299 35.3115 61.8633 35.5312 61.4434 35.9707C61.2578 36.166 61.165 36.4492 61.165 36.8203C61.165 37.2012 61.2773 37.8604 61.502 38.7979C61.7266 39.7354 61.8389 40.3945 61.8389 40.7754C61.8389 41.166 61.7656 41.4736 61.6191 41.6982C61.4824 41.9326 61.2773 42.0498 61.0039 42.0498C60.7305 42.0498 60.5205 41.9326 60.374 41.6982C60.2275 41.4736 60.1543 41.166 60.1543 40.7754C60.1543 40.3848 60.2715 39.7109 60.5059 38.7539C60.75 37.7969 60.8721 37.0742 60.8721 36.5859L60.8574 18.627C60.8574 17.4746 60.5059 16.5127 59.8027 15.7412L60.1104 15.4336C60.9014 16.1367 61.8633 16.4883 62.9961 16.4883H67.376C68.001 16.4883 68.5283 16.415 68.958 16.2686C69.3975 16.1123 69.749 15.8096 70.0127 15.3604L70.4961 15.5947C70.2422 16.2002 70.1152 16.7715 70.1152 17.3086C70.1152 17.748 70.8867 18.8516 72.4297 20.6191C74.4414 22.9238 75.7354 24.4717 76.3115 25.2627C76.8877 26.0537 77.2637 26.6934 77.4395 27.1816H78.3184C77.8398 26.4785 77.6006 25.4873 77.6006 24.208C77.6006 23.6123 77.6738 22.7236 77.8203 21.542C77.9668 20.3506 78.04 19.457 78.04 18.8613C78.04 17.2598 77.5322 16.2197 76.5166 15.7412L76.8242 15.4336C77.6152 16.1367 78.5771 16.4883 79.71 16.4883H82.7129C83.8457 16.4883 84.8076 16.1367 85.5986 15.4336L85.8916 15.7412C85.1982 16.5225 84.8516 17.4844 84.8516 18.627L84.8223 36.5127C84.8223 36.9326 84.9199 37.5576 85.1152 38.3877C85.3105 39.2275 85.4082 39.8574 85.4082 40.2773C85.4082 40.9023 85.1689 41.2148 84.6904 41.2148C84.2119 41.2148 83.9727 40.9023 83.9727 40.2773C83.9727 39.8672 84.0654 39.2617 84.251 38.4609C84.4365 37.6699 84.5293 37.123 84.5293 36.8203C84.5293 36.5273 84.4316 36.3174 84.2363 36.1904C84.041 36.0635 83.8506 36 83.665 36H77.8789C77.0586 36 76.6484 36.7471 76.6484 38.2412C76.6484 38.8564 76.7607 39.7451 76.9854 40.9072C77.2197 42.0791 77.3369 42.9629 77.3369 43.5586C77.3369 44.4082 77.0195 44.833 76.3848 44.833C75.75 44.833 75.4326 44.4033 75.4326 43.5439C75.4326 42.9971 75.5547 42.2012 75.7988 41.1562C76.0527 40.1113 76.1846 39.3252 76.1943 38.7979L76.2236 36.8496C76.2529 35.9414 76.1602 35.3506 75.9453 35.0771L68.9287 26.1855C68.7432 25.9414 68.5381 25.4336 68.3135 24.6621L67.4199 24.6914C67.9277 25.2188 68.1816 25.8047 68.1816 26.4492V34.8135L68.46 42.2256C68.46 42.3818 68.4111 42.5137 68.3135 42.6211C68.2256 42.7383 68.0986 42.7969 67.9326 42.7969C67.7764 42.7969 67.6445 42.7285 67.5371 42.5918C67.4297 42.4648 67.376 42.3184 67.376 42.1523L67.5518 36.5273C67.5518 36.4102 67.5078 36.3027 67.4199 36.2051C67.332 36.1074 67.2295 36.0586 67.1123 36.0586C66.8584 36.0586 66.7314 36.2539 66.7314 36.6445C66.7314 37.0352 66.7949 37.6748 66.9219 38.5635C67.0586 39.4521 67.127 40.0625 67.127 40.3945C67.127 41.1367 66.9414 41.5078 66.5703 41.5078C66.209 41.5078 66.0283 41.1855 66.0283 40.541ZM97.7568 43.3096L98.0352 36.3516C95.0566 35.9316 92.7617 34.8574 91.1504 33.1289C89.5488 31.4004 88.748 29.042 88.748 26.0537C88.748 22.8701 89.793 20.4238 91.8828 18.7148C94.1875 16.8105 97.6104 15.8584 102.151 15.8584C109.427 15.8584 113.494 17.9482 114.354 22.1279C114.471 22.7334 114.729 23.1973 115.13 23.5195L114.881 23.8418C114.412 23.4902 113.904 23.3389 113.357 23.3877L107.718 23.7393C107.063 23.7881 106.639 24.0273 106.443 24.457L105.96 24.2227C106.058 24.0078 106.106 23.8223 106.106 23.666C106.106 23.1582 105.936 22.7188 105.594 22.3477C105.262 21.9668 104.837 21.6836 104.319 21.498C103.313 21.1367 102.337 20.9561 101.39 20.9561C99.9443 20.9561 98.8164 21.4492 98.0059 22.4355C97.2051 23.4121 96.8047 24.6865 96.8047 26.2588C96.8047 27.8213 97.2588 29.1006 98.167 30.0967C99.085 31.083 100.369 31.5762 102.02 31.5762C102.547 31.5762 103.133 31.4492 103.777 31.1953C104.432 30.9316 105.008 30.5557 105.506 30.0674C106.014 29.5791 106.268 29.0615 106.268 28.5146C106.268 28.3584 106.214 28.1631 106.106 27.9287L106.59 27.6797C106.824 28.1191 107.2 28.3584 107.718 28.3975C108.245 28.4365 108.924 28.4902 109.754 28.5586C111.58 28.7246 112.85 28.8076 113.562 28.8076C114.275 28.8076 114.837 28.6562 115.247 28.3535L115.481 28.6611C115.12 28.9346 114.847 29.4424 114.661 30.1846C114.485 30.917 114.139 31.625 113.621 32.3086C113.104 32.9824 112.518 33.5439 111.863 33.9932C111.219 34.4326 110.467 34.8184 109.607 35.1504C108.133 35.7363 106.517 36.1514 104.759 36.3955C104.759 37.2939 104.876 38.627 105.11 40.3945C105.345 42.1621 105.462 43.3389 105.462 43.9248C105.462 44.5107 105.389 44.9209 105.242 45.1553C105.105 45.3896 104.9 45.5068 104.627 45.5068C104.354 45.5068 104.144 45.3896 103.997 45.1553C103.851 44.9209 103.777 44.5449 103.777 44.0273C103.777 43.5195 103.855 42.5283 104.012 41.0537C104.178 39.5791 104.261 38.5928 104.261 38.0947C104.261 37.5967 104.236 37.2598 104.188 37.084C104.139 36.9082 104.08 36.7715 104.012 36.6738C103.943 36.5859 103.826 36.5176 103.66 36.4688C103.279 36.3711 102.82 36.3467 102.283 36.3955C101.209 36.4834 100.672 36.6641 100.672 36.9375L101.023 40.9219C101.023 41.5566 100.838 41.874 100.467 41.874C100.096 41.874 99.9102 41.6055 99.9102 41.0684C99.9102 40.5312 99.9736 39.8184 100.101 38.9297C100.237 38.041 100.306 37.4014 100.306 37.0107C100.306 36.6299 100.179 36.4395 99.9248 36.4395C99.4268 36.4395 99.0898 36.4932 98.9141 36.6006C98.748 36.708 98.665 36.8057 98.665 36.8936L98.8262 43.2363C98.8262 43.4023 98.7725 43.5488 98.665 43.6758C98.5576 43.8125 98.4258 43.8809 98.2695 43.8809C98.1133 43.8809 97.9863 43.8223 97.8887 43.7051C97.8008 43.5977 97.7568 43.4658 97.7568 43.3096ZM125.545 43.8955L125.706 39.999C125.706 38.7393 125.657 37.9434 125.56 37.6113C125.472 37.2793 125.379 36.9863 125.281 36.7324C125.184 36.4785 125.057 36.2734 124.9 36.1172C124.744 35.9609 124.559 35.8145 124.344 35.6777C123.934 35.4043 123.289 35.2676 122.41 35.2676C121.531 35.2676 120.789 35.624 120.184 36.3369C119.588 37.0498 119.29 37.9043 119.29 38.9004C119.29 39.2715 119.363 39.8232 119.51 40.5557C119.656 41.2979 119.729 41.8545 119.729 42.2256C119.729 42.9287 119.48 43.2803 118.982 43.2803C118.484 43.2803 118.235 42.9385 118.235 42.2549C118.235 41.874 118.309 41.3027 118.455 40.541C118.611 39.7793 118.689 39.2031 118.689 38.8125L118.792 34.8867V17.6748C118.792 17.0693 118.602 16.5811 118.221 16.21L118.514 15.9023C118.924 16.293 119.412 16.4883 119.979 16.4883H125.281C125.867 16.4883 126.355 16.293 126.746 15.9023L127.039 16.21C126.658 16.5908 126.468 17.0791 126.468 17.6748V34.8135C126.468 35.3213 126.414 36.1953 126.307 37.4355C126.199 38.6855 126.165 39.6475 126.204 40.3213H126.189C126.551 41.9424 126.731 43.1777 126.731 44.0273C126.731 44.877 126.57 45.3018 126.248 45.3018C125.779 45.3018 125.545 44.833 125.545 43.8955ZM139.388 39.6182L139.681 37.5381C139.681 37.3037 139.632 36.9863 139.534 36.5859C139.446 36.1953 139.319 36 139.153 36H133.001C132.425 36 131.941 36.1904 131.551 36.5713L131.258 36.2783C131.629 35.9072 131.814 35.4189 131.814 34.8135V17.6748C131.814 17.0596 131.629 16.5713 131.258 16.21L131.551 15.9023C131.951 16.293 132.435 16.4883 133.001 16.4883H145.115C150.955 16.4883 154.578 18.3877 155.984 22.1865C156.375 23.2607 156.57 24.4814 156.57 25.8486C156.57 29.7158 155.525 32.4209 153.436 33.9639C152 35.0283 149.847 35.668 146.976 35.8828C145.862 35.9707 144.578 36.0098 143.123 36C141.668 36 140.818 36 140.574 36C140.408 36 140.267 36.2344 140.149 36.7031C140.032 37.1719 139.974 37.5234 139.974 37.7578L140.223 39.6328C140.223 40.0039 140.081 40.1895 139.798 40.1895C139.524 40.1895 139.388 39.999 139.388 39.6182ZM147.767 29.54C148.06 29.1494 148.289 28.6465 148.455 28.0312C148.621 27.4062 148.704 26.6592 148.704 25.79C148.704 24.9111 148.558 24.1787 148.265 23.5928C147.972 23.0068 147.581 22.5771 147.093 22.3037C146.604 22.0303 146.062 21.8301 145.467 21.7031C144.871 21.5664 144.246 21.4932 143.592 21.4834C142.947 21.4639 142.342 21.4492 141.775 21.4395C140.389 21.4199 139.5 21.2148 139.109 20.8242L138.816 21.1172C139.197 21.4883 139.388 21.9766 139.388 22.582C139.388 26.9473 139.397 29.75 139.417 30.9902H142.742C144.402 30.9902 145.579 30.8438 146.272 30.5508C146.976 30.2578 147.474 29.9209 147.767 29.54ZM166.971 20.2822L167.044 18.4072C167.044 17.333 166.834 16.5908 166.414 16.1807L166.707 15.8877C167.098 16.2686 167.581 16.459 168.157 16.459H187.391C187.986 16.459 188.475 16.2686 188.855 15.8877L189.148 16.1807C188.777 16.5518 188.592 17.04 188.592 17.6455L188.519 19.5205C188.519 20.5752 188.729 21.3125 189.148 21.7324L188.855 22.04C188.416 21.5908 187.703 21.3662 186.717 21.3662L183.479 21.5713C182.454 21.5713 181.717 21.3467 181.268 20.8975L180.96 21.1904C181.341 21.5615 181.531 22.0498 181.531 22.6553V34.8135C181.531 35.8291 181.619 37.3428 181.795 39.3545C181.98 41.3662 182.073 42.6895 182.073 43.3242C182.073 44.4375 181.873 44.9941 181.473 44.9941C181.072 44.9941 180.872 44.5986 180.872 43.8076C180.872 43.0166 180.936 41.9424 181.062 40.585C181.199 39.2373 181.268 38.2217 181.268 37.5381C181.268 36.4736 181.058 35.9414 180.638 35.9414C180.433 35.9414 180.271 36.0635 180.154 36.3076C180.037 36.5518 179.979 36.791 179.979 37.0254L180.315 40.0869C180.315 40.79 180.115 41.1416 179.715 41.1416C179.51 41.1416 179.358 41.0391 179.261 40.834C179.163 40.6289 179.114 40.3896 179.114 40.1162C179.114 39.8428 179.202 39.3936 179.378 38.7686C179.554 38.1533 179.642 37.6504 179.642 37.2598C179.642 36.8691 179.471 36.5713 179.129 36.3662C178.797 36.1611 178.372 36.0586 177.854 36.0586C177.347 36.0586 176.814 36.1611 176.258 36.3662C175.711 36.5713 175.228 36.8887 174.808 37.3184C174.388 37.7578 174.178 38.1875 174.178 38.6074C174.178 39.0371 174.241 39.5547 174.368 40.1602C174.505 40.7656 174.573 41.2686 174.573 41.6689C174.573 42.0791 174.393 42.2842 174.031 42.2842C173.621 42.2842 173.416 42.0645 173.416 41.625C173.416 41.1953 173.494 40.6484 173.65 39.9844C173.807 39.3203 173.885 38.8223 173.885 38.4902V34.6816C173.904 29.3301 173.914 25.3213 173.914 22.6553C173.914 22.04 174.1 21.5518 174.471 21.1904L174.178 20.8975C173.748 21.3369 173.035 21.5566 172.039 21.5566L168.89 21.3662C167.884 21.3662 167.156 21.5908 166.707 22.04L166.414 21.7324C166.785 21.3613 166.971 20.8779 166.971 20.2822ZM179.598 43.3535C179.832 44.4277 179.949 45.3604 179.949 46.1514C179.949 46.4932 179.827 46.6641 179.583 46.6641C179.339 46.6641 179.217 46.5078 179.217 46.1953C179.217 45.3164 179.344 44.3691 179.598 43.3535ZM204.104 38.373L204.207 36.9668C204.207 36.7227 204.09 36.5322 203.855 36.3955C203.621 36.2686 203.367 36.2051 203.094 36.2051C202.82 36.2051 202.576 36.2783 202.361 36.4248C202.146 36.5713 202.039 36.7812 202.039 37.0547V40.4238C202.039 40.9121 202.142 41.6299 202.347 42.5771C202.552 43.5244 202.654 44.1982 202.654 44.5986C202.654 45.0088 202.566 45.3457 202.391 45.6094C202.215 45.873 201.971 46.0049 201.658 46.0049C201.355 46.0049 201.126 45.8682 200.97 45.5947C200.813 45.3213 200.735 44.9648 200.735 44.5254C200.735 44.0859 200.848 43.3242 201.072 42.2402C201.297 41.1562 201.409 40.3164 201.409 39.7207C201.409 37.3086 200.96 36.1025 200.062 36.1025C198.851 36.1025 198.245 36.0537 198.245 35.9561V35.9854C198.245 36.6592 198.392 37.6455 198.685 38.9443C198.987 40.2529 199.139 41.1904 199.139 41.7568C199.139 42.3232 199.036 42.7871 198.831 43.1484C198.626 43.5195 198.309 43.7051 197.879 43.7051C197.459 43.7051 197.127 43.5293 196.883 43.1777C196.648 42.8262 196.531 42.3672 196.531 41.8008C196.531 41.2441 196.673 40.2822 196.956 38.915C197.239 37.5576 197.381 36.5273 197.381 35.8242C195.066 35.0918 193.323 33.8955 192.151 32.2354C190.989 30.5752 190.408 28.5244 190.408 26.083C190.408 21.0244 192.957 17.8311 198.055 16.5029C199.705 16.0732 201.409 15.8584 203.167 15.8584C204.935 15.8584 206.434 15.9561 207.664 16.1514C208.904 16.3467 210.101 16.6934 211.253 17.1914C212.415 17.6797 213.401 18.3047 214.212 19.0664C215.032 19.8184 215.687 20.7949 216.175 21.9961C216.663 23.1875 216.907 24.5498 216.907 26.083C216.907 29.208 216.028 31.6299 214.271 33.3486C212.513 35.0576 210.042 36.1074 206.858 36.498C206.819 36.5664 206.8 36.6738 206.8 36.8203L206.873 37.626C206.873 38.124 206.736 38.373 206.463 38.373C206.189 38.373 206.053 38.1338 206.053 37.6553L206.097 36.835C206.097 36.542 205.887 36.3955 205.467 36.3955C205.428 36.4834 205.408 36.6494 205.408 36.8936L205.481 38.3145C205.481 38.6074 205.428 38.8906 205.32 39.1641C205.213 39.4375 205.032 39.5742 204.778 39.5742C204.329 39.5742 204.104 39.1738 204.104 38.373ZM198.567 26.0977C198.567 29.6719 200.267 31.459 203.665 31.459C207.063 31.459 208.763 29.6719 208.763 26.0977C208.763 24.457 208.323 23.2021 207.444 22.333C206.565 21.4639 205.306 21.0293 203.665 21.0293C202.024 21.0293 200.765 21.4639 199.886 22.333C199.007 23.2021 198.567 24.457 198.567 26.0977ZM220.833 38.666L220.921 36.6299V17.6748C220.921 17.0693 220.73 16.5811 220.35 16.21L220.643 15.9023C221.053 16.293 221.541 16.4883 222.107 16.4883H231.497C232.093 16.4883 232.532 16.2783 232.815 15.8584L233.196 16.1367C233.021 16.3613 232.933 16.6836 232.933 17.1035C232.933 17.5234 233.089 18.1484 233.401 18.9785C233.714 19.7988 234.056 20.5801 234.427 21.3223C235.433 23.3145 235.936 24.9355 235.936 26.1855H236.141C236.141 24.8867 236.639 23.2607 237.635 21.3076C238.631 19.374 239.129 17.9189 239.129 16.9424C239.129 16.6494 239.036 16.3809 238.851 16.1367L239.246 15.8584C239.529 16.2783 239.969 16.4883 240.564 16.4883H249.954C250.54 16.4883 251.028 16.293 251.419 15.9023L251.712 16.21C251.331 16.5908 251.141 17.0791 251.141 17.6748V34.8135C251.141 35.5264 251.136 36.0146 251.126 36.2783L250.833 36.5713C250.638 36.1904 250.345 36 249.954 36H245.047C244.559 36 244.314 37.0107 244.314 39.0322C244.314 39.3838 244.383 39.8965 244.52 40.5703C244.666 41.2539 244.739 41.7568 244.739 42.0791C244.739 42.4014 244.676 42.6455 244.549 42.8115C244.432 42.9775 244.285 43.0605 244.109 43.0605C243.934 43.0605 243.777 42.9727 243.641 42.7969C243.514 42.6309 243.45 42.3965 243.45 42.0938C243.45 41.791 243.509 41.3027 243.626 40.6289C243.753 39.9648 243.816 39.4766 243.816 39.1641L243.86 34.8135V23.4609C243.86 22.8457 243.909 22.2598 244.007 21.7031L243.904 21.6885C243.709 22.6455 243.191 24.1445 242.352 26.1855C241.512 28.2266 240.735 30.1455 240.022 31.9424C239.31 33.7393 238.953 34.9502 238.953 35.5752L239.012 38.9004C239.021 39.4863 239.139 40.3652 239.363 41.5371C239.588 42.7188 239.7 43.5635 239.7 44.0713C239.7 44.5889 239.617 44.9697 239.451 45.2139C239.285 45.4678 239.095 45.5947 238.88 45.5947C238.675 45.5947 238.499 45.4775 238.353 45.2432C238.216 45.0186 238.147 44.6377 238.147 44.1006C238.147 43.5635 238.216 42.6797 238.353 41.4492C238.489 40.2188 238.558 39.3252 238.558 38.7686C238.558 38.2217 238.528 37.7627 238.47 37.3916C238.411 37.0303 238.338 36.7275 238.25 36.4834C238.172 36.249 238.055 36.0488 237.898 35.8828C237.742 35.707 237.596 35.5752 237.459 35.4873C237.322 35.3994 237.146 35.3311 236.932 35.2822C235.818 35.0283 234.891 35.1455 234.148 35.6338C233.689 35.9365 233.46 36.3125 233.46 36.7617L233.636 38.3584C233.636 38.7197 233.504 38.9004 233.24 38.9004C232.977 38.9004 232.845 38.7051 232.845 38.3145L233.094 35.5752C233.094 34.9209 232.732 33.71 232.01 31.9424C231.297 30.165 230.521 28.2656 229.681 26.2441C228.841 24.2227 228.328 22.7041 228.143 21.6885L228.055 21.7031C228.152 22.2598 228.201 22.8457 228.201 23.4609V37.9336C228.201 38.0996 228.274 38.7588 228.421 39.9111C228.577 41.0635 228.655 41.8789 228.655 42.3574C228.655 42.8359 228.553 43.2021 228.348 43.4561C228.152 43.7197 227.923 43.8516 227.659 43.8516C227.396 43.8516 227.166 43.7295 226.971 43.4854C226.785 43.2412 226.692 42.9043 226.692 42.4746C226.692 42.0547 226.766 41.3076 226.912 40.2334C227.068 39.1689 227.146 38.4316 227.146 38.0215L227.161 37.5967C227.161 37.3428 227.098 37.1572 226.971 37.04C226.717 36.7959 225.73 36.6738 224.012 36.6738C222.303 36.6738 221.448 36.6836 221.448 36.7031L221.492 38.6367C221.492 38.8613 221.38 38.9736 221.155 38.9736C220.94 38.9736 220.833 38.8711 220.833 38.666ZM254.847 36.9375L254.891 39.2666C254.891 39.7354 254.817 40.0869 254.671 40.3213C254.524 40.5654 254.349 40.6875 254.144 40.6875C253.733 40.6875 253.528 40.292 253.528 39.501C253.528 38.71 253.626 37.8311 253.821 36.8643C254.017 35.9072 254.188 35.248 254.334 34.8867L261.365 17.5869C261.463 17.333 261.512 17.084 261.512 16.8398C261.512 16.5957 261.429 16.3564 261.263 16.1221L261.673 15.8584C261.956 16.2783 262.396 16.4883 262.991 16.4883H269.729C270.315 16.4883 270.75 16.2783 271.033 15.8584L271.458 16.1221C271.292 16.3564 271.209 16.5811 271.209 16.7959C271.209 17.0107 271.268 17.2695 271.385 17.5723L278.621 34.9014C278.846 35.4482 279.192 35.8779 279.661 36.1904L279.485 36.4688C279.007 36.1562 278.475 36 277.889 36H275.018C275.037 36.2148 275.047 36.3662 275.047 36.4541C275.047 36.7764 274.915 36.9375 274.651 36.9375C274.534 36.9375 274.427 36.8887 274.329 36.791C274.241 36.7031 274.197 36.5713 274.197 36.3955C274.197 36.2295 274.207 36.0977 274.227 36H272.454C272.024 36 271.746 36.2344 271.619 36.7031C271.463 37.2793 271.385 37.9385 271.385 38.6807C271.385 39.4326 271.434 40.1162 271.531 40.7314C271.629 41.3467 271.678 41.7666 271.678 41.9912C271.678 42.2256 271.619 42.4111 271.502 42.5479C271.395 42.6943 271.258 42.7676 271.092 42.7676C270.926 42.7676 270.784 42.6992 270.667 42.5625C270.55 42.4258 270.491 42.2354 270.491 41.9912C270.491 41.7471 270.55 41.2734 270.667 40.5703C270.794 39.8672 270.857 39.3398 270.857 38.9883V34.8721C270.76 34.6084 270.711 34.3643 270.711 34.1396C270.711 33.915 270.799 33.6758 270.975 33.4219L270.594 33.1436C270.301 33.5635 269.861 33.7734 269.275 33.7734H263.255C262.669 33.7734 262.229 33.5684 261.937 33.1582L261.556 33.4219C261.741 33.6855 261.834 33.9297 261.834 34.1543C261.834 34.3789 261.8 34.6182 261.731 34.8721V34.8867C261.644 35.2188 261.6 35.4727 261.6 35.6484C261.6 35.8242 261.697 36.0537 261.893 36.3369L261.512 36.6152C261.219 36.2051 260.779 36 260.193 36H254.891C254.861 36.1855 254.847 36.498 254.847 36.9375ZM264.764 29.7158H267.562C268.147 29.7158 268.675 29.8721 269.144 30.1846L269.334 29.9062C268.875 29.5938 268.543 29.1592 268.338 28.6025L266.478 23.8418C266.263 23.2852 266.15 22.7188 266.141 22.1426H265.95C265.931 22.7871 265.833 23.3535 265.657 23.8418L263.973 28.5879C263.768 29.1543 263.44 29.5938 262.991 29.9062L263.182 30.1992C263.641 29.877 264.168 29.7158 264.764 29.7158ZM274.271 40.8486C274.271 40.1748 274.397 39.3301 274.651 38.3145C274.935 39.4863 275.076 40.248 275.076 40.5996C275.076 41.1172 274.939 41.376 274.666 41.376C274.402 41.376 274.271 41.2002 274.271 40.8486ZM278.211 20.2822L278.284 18.4072C278.284 17.333 278.074 16.5908 277.654 16.1807L277.947 15.8877C278.338 16.2686 278.821 16.459 279.397 16.459H298.631C299.227 16.459 299.715 16.2686 300.096 15.8877L300.389 16.1807C300.018 16.5518 299.832 17.04 299.832 17.6455L299.759 19.5205C299.759 20.5752 299.969 21.3125 300.389 21.7324L300.096 22.04C299.656 21.5908 298.943 21.3662 297.957 21.3662L294.72 21.5713C293.694 21.5713 292.957 21.3467 292.508 20.8975L292.2 21.1904C292.581 21.5615 292.771 22.0498 292.771 22.6553V34.8135C292.771 35.8291 292.859 37.3428 293.035 39.3545C293.221 41.3662 293.313 42.6895 293.313 43.3242C293.313 44.4375 293.113 44.9941 292.713 44.9941C292.312 44.9941 292.112 44.5986 292.112 43.8076C292.112 43.0166 292.176 41.9424 292.303 40.585C292.439 39.2373 292.508 38.2217 292.508 37.5381C292.508 36.4736 292.298 35.9414 291.878 35.9414C291.673 35.9414 291.512 36.0635 291.395 36.3076C291.277 36.5518 291.219 36.791 291.219 37.0254L291.556 40.0869C291.556 40.79 291.355 41.1416 290.955 41.1416C290.75 41.1416 290.599 41.0391 290.501 40.834C290.403 40.6289 290.354 40.3896 290.354 40.1162C290.354 39.8428 290.442 39.3936 290.618 38.7686C290.794 38.1533 290.882 37.6504 290.882 37.2598C290.882 36.8691 290.711 36.5713 290.369 36.3662C290.037 36.1611 289.612 36.0586 289.095 36.0586C288.587 36.0586 288.055 36.1611 287.498 36.3662C286.951 36.5713 286.468 36.8887 286.048 37.3184C285.628 37.7578 285.418 38.1875 285.418 38.6074C285.418 39.0371 285.481 39.5547 285.608 40.1602C285.745 40.7656 285.813 41.2686 285.813 41.6689C285.813 42.0791 285.633 42.2842 285.271 42.2842C284.861 42.2842 284.656 42.0645 284.656 41.625C284.656 41.1953 284.734 40.6484 284.891 39.9844C285.047 39.3203 285.125 38.8223 285.125 38.4902V34.6816C285.145 29.3301 285.154 25.3213 285.154 22.6553C285.154 22.04 285.34 21.5518 285.711 21.1904L285.418 20.8975C284.988 21.3369 284.275 21.5566 283.279 21.5566L280.13 21.3662C279.124 21.3662 278.396 21.5908 277.947 22.04L277.654 21.7324C278.025 21.3613 278.211 20.8779 278.211 20.2822ZM290.838 43.3535C291.072 44.4277 291.189 45.3604 291.189 46.1514C291.189 46.4932 291.067 46.6641 290.823 46.6641C290.579 46.6641 290.457 46.5078 290.457 46.1953C290.457 45.3164 290.584 44.3691 290.838 43.3535ZM310.643 43.8955L310.804 39.999C310.804 38.7393 310.755 37.9434 310.657 37.6113C310.569 37.2793 310.477 36.9863 310.379 36.7324C310.281 36.4785 310.154 36.2734 309.998 36.1172C309.842 35.9609 309.656 35.8145 309.441 35.6777C309.031 35.4043 308.387 35.2676 307.508 35.2676C306.629 35.2676 305.887 35.624 305.281 36.3369C304.686 37.0498 304.388 37.9043 304.388 38.9004C304.388 39.2715 304.461 39.8232 304.607 40.5557C304.754 41.2979 304.827 41.8545 304.827 42.2256C304.827 42.9287 304.578 43.2803 304.08 43.2803C303.582 43.2803 303.333 42.9385 303.333 42.2549C303.333 41.874 303.406 41.3027 303.553 40.541C303.709 39.7793 303.787 39.2031 303.787 38.8125L303.89 34.8867V17.6748C303.89 17.0693 303.699 16.5811 303.318 16.21L303.611 15.9023C304.021 16.293 304.51 16.4883 305.076 16.4883H310.379C310.965 16.4883 311.453 16.293 311.844 15.9023L312.137 16.21C311.756 16.5908 311.565 17.0791 311.565 17.6748V34.8135C311.565 35.3213 311.512 36.1953 311.404 37.4355C311.297 38.6855 311.263 39.6475 311.302 40.3213H311.287C311.648 41.9424 311.829 43.1777 311.829 44.0273C311.829 44.877 311.668 45.3018 311.346 45.3018C310.877 45.3018 310.643 44.833 310.643 43.8955ZM337.259 32.1328L337.2 34.0371C337.2 35.1016 337.415 35.8486 337.845 36.2783L337.537 36.5713C337.166 36.1904 336.678 36 336.072 36H331.81C331.819 36.1367 331.824 36.3174 331.824 36.542C331.824 37.0889 331.688 37.3623 331.414 37.3623C331.141 37.3623 331.004 37.0547 331.004 36.4395C331.004 36.2539 331.009 36.1074 331.019 36H317.908C317.674 36 317.469 36.4199 317.293 37.2598C317.127 38.1094 317.044 38.7881 317.044 39.2959C317.044 39.8037 317.161 40.7119 317.396 42.0205C317.63 43.3389 317.747 44.3643 317.747 45.0967C317.747 45.8389 317.459 46.21 316.883 46.21C316.258 46.21 315.945 45.8291 315.945 45.0674C315.945 44.3057 316.077 43.2461 316.341 41.8887C316.604 40.541 316.736 39.5254 316.736 38.8418L316.722 17.6748C316.722 17.0791 316.526 16.5908 316.136 16.21L316.443 15.9023C316.844 16.293 317.332 16.4883 317.908 16.4883H323.152C323.748 16.4883 324.236 16.293 324.617 15.9023L324.925 16.21C324.534 16.5908 324.339 17.0791 324.339 17.6748V29.7598C324.339 30.3457 324.148 30.8291 323.768 31.21L324.075 31.5176C324.573 31.0195 325.662 30.7705 327.342 30.7705L334.285 31.1221C335.955 31.1221 337.039 30.873 337.537 30.375L337.845 30.668C337.454 31.0488 337.259 31.5371 337.259 32.1328ZM331.912 42.5039C331.912 42.9043 331.746 43.1045 331.414 43.1045C331.082 43.1045 330.916 42.8652 330.916 42.3867C330.916 41.9668 330.994 41.4492 331.15 40.834C331.316 40.2285 331.404 39.9014 331.414 39.8525C331.434 39.9502 331.482 40.1504 331.561 40.4531C331.639 40.7559 331.697 40.9902 331.736 41.1562C331.854 41.6543 331.912 42.1035 331.912 42.5039ZM361.751 32.1328L361.692 34.0371C361.692 35.1016 361.907 35.8486 362.337 36.2783L362.029 36.5713C361.658 36.1904 361.17 36 360.564 36H356.302C356.312 36.1367 356.316 36.3174 356.316 36.542C356.316 37.0889 356.18 37.3623 355.906 37.3623C355.633 37.3623 355.496 37.0547 355.496 36.4395C355.496 36.2539 355.501 36.1074 355.511 36H342.4C342.166 36 341.961 36.4199 341.785 37.2598C341.619 38.1094 341.536 38.7881 341.536 39.2959C341.536 39.8037 341.653 40.7119 341.888 42.0205C342.122 43.3389 342.239 44.3643 342.239 45.0967C342.239 45.8389 341.951 46.21 341.375 46.21C340.75 46.21 340.438 45.8291 340.438 45.0674C340.438 44.3057 340.569 43.2461 340.833 41.8887C341.097 40.541 341.229 39.5254 341.229 38.8418L341.214 17.6748C341.214 17.0791 341.019 16.5908 340.628 16.21L340.936 15.9023C341.336 16.293 341.824 16.4883 342.4 16.4883H347.645C348.24 16.4883 348.729 16.293 349.109 15.9023L349.417 16.21C349.026 16.5908 348.831 17.0791 348.831 17.6748V29.7598C348.831 30.3457 348.641 30.8291 348.26 31.21L348.567 31.5176C349.065 31.0195 350.154 30.7705 351.834 30.7705L358.777 31.1221C360.447 31.1221 361.531 30.873 362.029 30.375L362.337 30.668C361.946 31.0488 361.751 31.5371 361.751 32.1328ZM356.404 42.5039C356.404 42.9043 356.238 43.1045 355.906 43.1045C355.574 43.1045 355.408 42.8652 355.408 42.3867C355.408 41.9668 355.486 41.4492 355.643 40.834C355.809 40.2285 355.896 39.9014 355.906 39.8525C355.926 39.9502 355.975 40.1504 356.053 40.4531C356.131 40.7559 356.189 40.9902 356.229 41.1562C356.346 41.6543 356.404 42.1035 356.404 42.5039ZM406.364 40.2773L406.511 38.7979V36.0586C403.884 35.9219 401.921 35.5654 400.622 34.9893C399.323 34.4033 398.366 33.6709 397.751 32.792C397.38 32.2744 397.092 31.6982 396.887 31.0635C396.691 30.4189 396.364 29.9355 395.905 29.6133L396.125 29.3057C396.564 29.5986 397.038 29.7451 397.546 29.7451C398.063 29.7451 398.723 29.7256 399.523 29.6865C400.324 29.6475 401.228 29.6035 402.233 29.5547C403.239 29.4961 403.957 29.457 404.387 29.4375C404.816 29.418 405.134 29.3594 405.339 29.2617C405.544 29.1543 405.69 28.9639 405.778 28.6904L406.438 28.9102C406.408 28.9883 406.394 29.0908 406.394 29.2178C406.394 29.54 406.662 29.9062 407.199 30.3164C407.736 30.7266 408.708 30.9316 410.114 30.9316C411.062 30.9316 411.735 30.7705 412.136 30.4482C412.312 30.3018 412.399 30.126 412.399 29.9209C412.399 29.4424 412.136 29.125 411.608 28.9688C411.081 28.8125 410.441 28.6807 409.689 28.5732C408.947 28.4561 408.2 28.3633 407.448 28.2949C406.706 28.2266 405.9 28.1289 405.031 28.002C404.162 27.875 403.342 27.7383 402.57 27.5918C401.799 27.4355 401.047 27.2109 400.314 26.918C399.592 26.625 398.972 26.2832 398.454 25.8926C397.937 25.4922 397.517 24.9844 397.194 24.3691C396.882 23.7441 396.726 23.0361 396.726 22.2451C396.726 21.4541 396.848 20.7314 397.092 20.0771C397.346 19.4229 397.688 18.8613 398.117 18.3926C398.547 17.9238 399.064 17.5088 399.67 17.1475C400.285 16.7861 400.925 16.4932 401.589 16.2686C402.263 16.0439 402.995 15.8633 403.786 15.7266C405.163 15.4727 406.462 15.3457 407.683 15.3457C408.903 15.3457 409.831 15.3652 410.466 15.4043C411.11 15.4336 411.862 15.4971 412.722 15.5947C413.591 15.6826 414.372 15.834 415.065 16.0488C415.769 16.2539 416.462 16.5176 417.146 16.8398C418.571 17.5039 419.572 18.5342 420.148 19.9307C420.383 20.4287 420.705 20.8926 421.115 21.3223L420.925 21.6592C420.515 21.376 420.041 21.2344 419.504 21.2344H419.313C418.532 21.2637 417.414 21.3223 415.959 21.4102C414.514 21.4883 413.581 21.5371 413.161 21.5566C412.751 21.5762 412.453 21.6348 412.268 21.7324C412.092 21.8301 411.965 22.0156 411.887 22.2891L411.242 22.1133C411.271 22.0254 411.286 21.9326 411.286 21.835C411.286 21.4248 410.954 21.0732 410.29 20.7803C409.626 20.4775 408.874 20.3262 408.034 20.3262C406.394 20.3262 405.573 20.6484 405.573 21.293C405.573 21.8691 406.804 22.2891 409.265 22.5527C409.841 22.6211 410.495 22.6895 411.228 22.7578C413.776 23.0215 415.729 23.3682 417.087 23.7979C419.938 24.6963 421.364 26.4102 421.364 28.9395C421.364 29.9746 421.149 30.9072 420.72 31.7373C420.29 32.5576 419.729 33.2266 419.035 33.7441C418.352 34.2617 417.541 34.6914 416.604 35.0332C414.914 35.6484 412.985 35.9561 410.817 35.9561C410.231 35.9561 409.885 35.9512 409.777 35.9414C409.25 35.9414 408.986 36.3467 408.986 37.1572V37.5088C408.986 37.7725 409.05 38.1582 409.177 38.666C409.313 39.1836 409.382 39.5693 409.382 39.8232C409.382 40.3408 409.201 40.5996 408.84 40.5996C408.654 40.5996 408.508 40.5215 408.4 40.3652C408.303 40.209 408.254 40.0137 408.254 39.7793C408.254 39.5449 408.312 39.1445 408.43 38.5781C408.557 38.0215 408.62 37.6162 408.62 37.3623C408.62 37.1084 408.615 36.9277 408.605 36.8203C408.605 36.7227 408.591 36.5957 408.562 36.4395C408.542 36.293 408.503 36.1855 408.444 36.1172C408.308 35.9414 408.073 35.8535 407.741 35.8535C407.136 35.8535 406.833 36.3809 406.833 37.4355L406.921 39.8379C406.921 40.4824 406.828 40.8047 406.643 40.8047C406.457 40.8047 406.364 40.6289 406.364 40.2773Z" fill="white"/>
<path d="M379.492 38.6104L379.604 37.0635C379.604 36.7949 379.476 36.5854 379.218 36.4351C378.96 36.2954 378.681 36.2256 378.38 36.2256C378.079 36.2256 377.811 36.3062 377.574 36.4673C377.338 36.6284 377.22 36.8594 377.22 37.1602V40.8662C377.22 41.4033 377.333 42.1929 377.558 43.2349C377.784 44.2769 377.896 45.0181 377.896 45.4585C377.896 45.9097 377.8 46.2803 377.606 46.5703C377.413 46.8604 377.145 47.0054 376.801 47.0054C376.468 47.0054 376.215 46.855 376.043 46.5542C375.872 46.2534 375.786 45.8613 375.786 45.3779C375.786 44.8945 375.909 44.0566 376.156 42.8643C376.403 41.6719 376.527 40.748 376.527 40.0928C376.527 37.4395 376.033 36.1128 375.044 36.1128C373.712 36.1128 373.046 36.0591 373.046 35.9517V35.9839C373.046 36.7251 373.208 37.8101 373.53 39.2388C373.863 40.6782 374.029 41.7095 374.029 42.3325C374.029 42.9556 373.917 43.4658 373.691 43.8633C373.465 44.2715 373.116 44.4756 372.644 44.4756C372.182 44.4756 371.816 44.2822 371.548 43.8955C371.29 43.5088 371.161 43.0039 371.161 42.3809C371.161 41.7686 371.317 40.7104 371.628 39.2065C371.94 37.7134 372.096 36.5801 372.096 35.8066C369.55 35.001 367.632 33.6851 366.343 31.8589C365.065 30.0327 364.426 27.7769 364.426 25.0913C364.426 19.5269 367.229 16.0142 372.837 14.5532C374.652 14.0806 376.527 13.8442 378.46 13.8442C380.405 13.8442 382.054 13.9517 383.407 14.1665C384.771 14.3813 386.087 14.7627 387.355 15.3105C388.633 15.8477 389.718 16.5352 390.61 17.373C391.512 18.2002 392.232 19.2744 392.769 20.5957C393.306 21.9062 393.575 23.4048 393.575 25.0913C393.575 28.5288 392.608 31.1929 390.674 33.0835C388.741 34.9634 386.023 36.1182 382.521 36.5479C382.478 36.623 382.457 36.7412 382.457 36.9023L382.537 37.7886C382.537 38.3364 382.387 38.6104 382.086 38.6104C381.785 38.6104 381.635 38.3472 381.635 37.8208L381.683 36.9185C381.683 36.5962 381.452 36.4351 380.99 36.4351C380.947 36.5317 380.926 36.7144 380.926 36.9829L381.006 38.5459C381.006 38.8682 380.947 39.1797 380.829 39.4805C380.711 39.7812 380.512 39.9316 380.233 39.9316C379.739 39.9316 379.492 39.4912 379.492 38.6104ZM373.401 25.1074C373.401 29.0391 375.27 31.0049 379.008 31.0049C382.747 31.0049 384.616 29.0391 384.616 25.1074C384.616 23.3027 384.132 21.9224 383.166 20.9663C382.199 20.0103 380.813 19.5322 379.008 19.5322C377.204 19.5322 375.818 20.0103 374.851 20.9663C373.884 21.9224 373.401 23.3027 373.401 25.1074Z" fill="#7F923C"/>
</g>
<defs>
<filter id="filter0_d_310_1215" x="0.0214844" y="7.5" width="425.343" height="47.5054" filterUnits="userSpaceOnUse" color-interpolation-filters="sRGB">
<feFlood flood-opacity="0" result="BackgroundImageFix"/>
<feColorMatrix in="SourceAlpha" type="matrix" values="0 0 0 0 0 0 0 0 0 0 0 0 0 0 0 0 0 0 127 0" result="hardAlpha"/>
<feOffset dy="4"/>
<feGaussianBlur stdDeviation="2"/>
<feComposite in2="hardAlpha" operator="out"/>
<feColorMatrix type="matrix" values="0 0 0 0 0 0 0 0 0 0 0 0 0 0 0 0 0 0 0.25 0"/>
<feBlend mode="normal" in2="BackgroundImageFix" result="effect1_dropShadow_310_1215"/>
<feBlend mode="normal" in="SourceGraphic" in2="effect1_dropShadow_310_1215" result="shape"/>
</filter>
</defs>
</svg>
